<?xml version="1.0" encoding="iso-8859-1"?>
<!-- Generator: Adobe Illustrator 19.0.0, SVG Export Plug-In . SVG Version: 6.00 Build 0)  -->
<svg version="1.1" id="Capa_1" xmlns="http://www.w3.org/2000/svg" xmlns:xlink="http://www.w3.org/1999/xlink" x="0px" y="0px"
	 viewBox="0 0 480 480" style="enable-background:new 0 0 480 480;" xml:space="preserve">
<linearGradient id="SVGID_1_" gradientUnits="userSpaceOnUse" x1="-24.875" y1="557.625" x2="-24.875" y2="616.558" gradientTransform="matrix(8 0 0 -8 455 4941)">
	<stop  offset="0" style="stop-color:#006DF0"/>
	<stop  offset="1" style="stop-color:#00E7F0"/>
</linearGradient>
<path style="fill:url(#SVGID_1_);" d="M256,32c-4.418,0-8,3.582-8,8v208H40c-4.418,0-8,3.582-8,8c0,123.712,100.288,224,224,224
	s224-100.288,224-224S379.712,32,256,32z M256,464c-111.698-0.14-203.388-88.389-207.8-200H256c4.418,0,8-3.582,8-8V48.2
	c114.766,5.002,203.747,102.094,198.745,216.86C457.914,375.899,366.942,463.436,256,464z"/>
<linearGradient id="SVGID_2_" gradientUnits="userSpaceOnUse" x1="-42.375" y1="557.678" x2="-42.375" y2="616.605" gradientTransform="matrix(8 0 0 -8 455 4941)">
	<stop  offset="0" style="stop-color:#006DF0"/>
	<stop  offset="1" style="stop-color:#00E7F0"/>
</linearGradient>
<path style="fill:url(#SVGID_2_);" d="M232,224V8c0-4.418-3.582-8-8-8C100.347,0.141,0.141,100.347,0,224c0,4.418,3.582,8,8,8h216
	C228.418,232,232,228.418,232,224z M216,216H16.152C20.471,107.466,107.466,20.471,216,16.152V216z"/>
<g>
</g>
<g>
</g>
<g>
</g>
<g>
</g>
<g>
</g>
<g>
</g>
<g>
</g>
<g>
</g>
<g>
</g>
<g>
</g>
<g>
</g>
<g>
</g>
<g>
</g>
<g>
</g>
<g>
</g>
</svg>
