<?xml version="1.0" encoding="iso-8859-1"?>
<!-- Generator: Adobe Illustrator 19.0.0, SVG Export Plug-In . SVG Version: 6.00 Build 0)  -->
<svg version="1.1" id="Capa_1" xmlns="http://www.w3.org/2000/svg" xmlns:xlink="http://www.w3.org/1999/xlink" x="0px" y="0px"
	 viewBox="0 0 480 480" style="enable-background:new 0 0 480 480;" xml:space="preserve">
<linearGradient id="SVGID_1_" gradientUnits="userSpaceOnUse" x1="-26.875" y1="550.5941" x2="-26.875" y2="607.3561" gradientTransform="matrix(8 0 0 -8 455.0002 4869.2617)">
	<stop  offset="0" style="stop-color:#006DF0"/>
	<stop  offset="1" style="stop-color:#00E7F0"/>
</linearGradient>
<path style="fill:url(#SVGID_1_);" d="M472,40.029h-5.52c-26.452-0.012-52.443-6.93-75.4-20.072L372,9.077
	c-2.63-1.499-5.882-1.384-8.4,0.296l-7.68,5.12c-5.787,3.842-11.833,7.276-18.096,10.28C292.855,12.963,246.488,7.33,200,8.029
	c-96.952,0-200,22.4-200,64v336c0,41.6,103.048,64,200,64s200-22.4,200-64V247.157c50.151-34.223,80.108-91.053,80-151.768v-47.36
	C480,43.611,476.418,40.029,472,40.029L472,40.029z M200,24.029c37.327-0.236,74.583,3.299,111.2,10.552
	c-1.776,0.48-3.528,1.064-5.312,1.472c-0.848,0.2-1.696,0.424-2.544,0.608c-4.624,0.984-9.296,1.728-14.008,2.28
	c-1.008,0.12-2.032,0.208-3.048,0.304c-4.88,0.464-9.784,0.8-14.752,0.8H264c-4.418,0-8,3.582-8,8v47.36
	c0,4.696,0.232,9.312,0.584,13.888c0.096,1.296,0.224,2.568,0.352,3.848s0.208,2.8,0.376,4.168
	c-5.243,0.485-10.544,0.904-15.904,1.256c-3.32,0.216-6.576,0.52-9.944,0.68c-10.32,0.504-20.8,0.8-31.464,0.8
	C86,120.029,16,92.077,16,72.029S86,24.029,200,24.029L200,24.029z M278.288,182.997c0.8,1.448,1.6,2.856,2.4,4.28
	c1.6,2.752,3.24,5.472,4.968,8.144c0.952,1.472,1.92,2.936,2.92,4.384c1.816,2.64,3.72,5.216,5.672,7.76
	c0.992,1.288,1.952,2.592,2.976,3.848c2.592,3.2,5.304,6.296,8.112,9.32c0.456,0.496,0.872,1.024,1.336,1.512l0.128,0.136
	c-3.989,0.8-8.069,1.555-12.24,2.264c-1.032,0.176-2.112,0.32-3.152,0.488c-3.44,0.552-6.912,1.088-10.464,1.6
	c-1.736,0.24-3.512,0.448-5.272,0.672c-2.952,0.376-5.904,0.744-8.912,1.072c-1.936,0.216-3.904,0.408-5.864,0.6
	c-2.933,0.293-5.888,0.56-8.864,0.8c-2,0.168-4,0.328-6.032,0.472c-3.072,0.224-6.176,0.424-9.288,0.6
	c-1.952,0.112-3.896,0.232-5.856,0.328c-3.416,0.16-6.864,0.288-10.32,0.392c-1.68,0.056-3.352,0.128-5.048,0.168
	c-5.125,0.128-10.288,0.192-15.488,0.192c-114,0-184-27.952-184-48V98.381c0.176,0.136,0.4,0.256,0.576,0.392
	c1.832,1.352,3.768,2.672,5.856,3.952c0.288,0.176,0.592,0.336,0.88,0.512c1.912,1.144,3.928,2.248,6.04,3.336
	c0.528,0.272,1.04,0.544,1.6,0.8c2.4,1.184,4.856,2.328,7.456,3.44c0.472,0.2,0.96,0.392,1.44,0.584
	c2.299,0.96,4.677,1.891,7.136,2.792c0.64,0.232,1.264,0.472,1.912,0.696c2.843,1.013,5.776,1.992,8.8,2.936l1.944,0.576
	c2.629,0.8,5.328,1.571,8.096,2.312c0.704,0.192,1.4,0.392,2.112,0.576c3.2,0.848,6.499,1.648,9.896,2.4
	c0.8,0.184,1.6,0.352,2.4,0.528c2.933,0.656,5.917,1.283,8.952,1.88c0.72,0.144,1.424,0.296,2.152,0.432
	c3.536,0.68,7.144,1.32,10.792,1.928c0.896,0.152,1.8,0.288,2.704,0.432c3.2,0.533,6.459,1.024,9.776,1.472
	c0.664,0.096,1.32,0.2,1.984,0.288c3.776,0.512,7.608,0.984,11.464,1.424l2.976,0.328c3.512,0.384,7.04,0.744,10.608,1.064
	l1.52,0.144c3.968,0.341,7.968,0.648,12,0.92l3.032,0.2c3.787,0.24,7.581,0.448,11.384,0.624l0.992,0.048
	c4.075,0.176,8.155,0.309,12.24,0.4l2.992,0.064c4.12,0.08,8.248,0.136,12.352,0.136c9.488,0,18.832-0.248,28.08-0.632
	c1.216-0.056,2.448-0.088,3.656-0.144c8.8-0.416,17.4-1.032,25.88-1.8c0.8-0.072,1.6-0.096,2.4-0.168c0.344,1.6,0.8,3.2,1.192,4.8
	s0.8,3.352,1.232,5.016c0.912,3.392,1.952,6.744,3.048,10.072c0.408,1.216,0.752,2.456,1.184,3.664
	c1.6,4.504,3.352,8.944,5.288,13.296c0.392,0.872,0.848,1.712,1.248,2.576C274.776,176.213,276.464,179.637,278.288,182.997
	L278.288,182.997z M384,257.029v39c0,20.048-70,48-184,48s-184-27.952-184-48v-85.648c0.176,0.136,0.4,0.256,0.576,0.392
	c1.832,1.352,3.768,2.672,5.856,3.952c0.288,0.176,0.592,0.336,0.88,0.512c1.912,1.144,3.928,2.248,6.04,3.336
	c0.528,0.272,1.04,0.544,1.6,0.8c2.4,1.184,4.856,2.328,7.456,3.44c0.472,0.2,0.96,0.392,1.44,0.584
	c2.299,0.96,4.677,1.891,7.136,2.792c0.64,0.232,1.264,0.472,1.912,0.696c2.843,1.013,5.776,1.992,8.8,2.936l1.944,0.576
	c2.629,0.8,5.328,1.571,8.096,2.312c0.704,0.192,1.4,0.392,2.112,0.576c3.2,0.848,6.499,1.648,9.896,2.4
	c0.8,0.184,1.6,0.352,2.4,0.528c2.933,0.656,5.917,1.283,8.952,1.88c0.72,0.144,1.424,0.296,2.152,0.432
	c3.536,0.68,7.144,1.32,10.792,1.928c0.896,0.152,1.8,0.288,2.704,0.432c3.2,0.533,6.459,1.024,9.776,1.472
	c0.664,0.096,1.32,0.2,1.984,0.288c3.776,0.512,7.608,0.984,11.464,1.424l2.976,0.328c3.512,0.384,7.04,0.744,10.608,1.064
	l1.52,0.144c3.968,0.347,7.968,0.653,12,0.92l3.032,0.2c3.787,0.24,7.581,0.448,11.384,0.624l0.992,0.048
	c4.075,0.176,8.155,0.309,12.24,0.4l2.992,0.064c4.12,0.08,8.248,0.136,12.352,0.136c5.6,0,11.176-0.072,16.728-0.216
	c1.832-0.048,3.64-0.144,5.464-0.2c3.688-0.128,7.384-0.24,11.032-0.432c2.232-0.112,4.424-0.272,6.64-0.408
	c3.2-0.2,6.4-0.384,9.6-0.624c2.36-0.184,4.664-0.408,7-0.616c2.944-0.264,5.912-0.512,8.8-0.8c2.4-0.248,4.76-0.544,7.136-0.8
	c2.752-0.32,5.512-0.632,8.208-0.992c2.4-0.312,4.72-0.672,7.072-1.016c2.584-0.384,5.176-0.76,7.704-1.168
	c2.344-0.384,4.608-0.8,6.904-1.224c2.4-0.432,4.856-0.864,7.2-1.336s4.448-0.928,6.648-1.408c1.6-0.344,3.272-0.664,4.8-1.024
	c1.344,1.144,2.776,2.192,4.16,3.296s2.816,2.296,4.264,3.392c2.112,1.6,4.288,3.088,6.464,4.584
	c1.392,0.952,2.752,1.944,4.168,2.864c2.504,1.6,5.088,3.128,7.68,4.632c1.176,0.68,2.312,1.416,3.504,2.072
	c3.832,2.112,7.736,4.112,11.736,5.96l1.76,0.8c2.1,0.952,4.508,0.952,6.608,0l1.824-0.8
	C376.843,260.789,380.453,258.954,384,257.029L384,257.029z M384,408.029c0,20.048-70,48-184,48s-184-27.952-184-48v-85.648
	c0.176,0.136,0.4,0.256,0.576,0.392c1.832,1.352,3.768,2.672,5.856,3.952c0.288,0.176,0.592,0.336,0.88,0.512
	c1.912,1.144,3.928,2.248,6.04,3.336c0.528,0.272,1.04,0.544,1.6,0.8c2.4,1.184,4.856,2.328,7.456,3.44
	c0.472,0.2,0.96,0.392,1.44,0.584c2.299,0.96,4.677,1.891,7.136,2.792c0.64,0.232,1.264,0.472,1.912,0.696
	c2.843,1.019,5.776,1.997,8.8,2.936l1.944,0.576c2.629,0.8,5.328,1.571,8.096,2.312c0.704,0.192,1.4,0.392,2.112,0.576
	c3.2,0.848,6.499,1.648,9.896,2.4c0.8,0.184,1.6,0.352,2.4,0.528c2.933,0.656,5.917,1.283,8.952,1.88
	c0.72,0.144,1.424,0.296,2.152,0.432c3.536,0.68,7.144,1.32,10.792,1.928c0.896,0.152,1.8,0.288,2.704,0.432
	c3.2,0.533,6.459,1.024,9.776,1.472c0.664,0.096,1.32,0.2,1.984,0.288c3.776,0.512,7.608,0.984,11.464,1.424l2.976,0.328
	c3.512,0.384,7.04,0.744,10.608,1.064l1.52,0.144c3.968,0.347,7.968,0.653,12,0.92l3.032,0.2c3.787,0.24,7.581,0.448,11.384,0.624
	l0.992,0.048c4.075,0.176,8.155,0.309,12.24,0.4l2.992,0.064c4.12,0.08,8.248,0.136,12.352,0.136s8.232-0.056,12.352-0.136
	l2.992-0.064c4.091-0.096,8.171-0.229,12.24-0.4l0.992-0.048c3.808-0.176,7.603-0.384,11.384-0.624l3.032-0.2
	c4.016-0.272,8.016-0.579,12-0.92l1.52-0.144c3.568-0.32,7.107-0.675,10.616-1.064l2.968-0.328c3.856-0.44,7.688-0.912,11.464-1.424
	c0.664-0.088,1.32-0.192,1.984-0.288c3.296-0.459,6.555-0.949,9.776-1.472c0.904-0.144,1.808-0.28,2.704-0.432
	c3.648-0.608,7.256-1.248,10.792-1.928c0.728-0.136,1.432-0.288,2.152-0.432c3.035-0.603,6.019-1.229,8.952-1.88
	c0.8-0.176,1.6-0.344,2.4-0.528c3.371-0.768,6.669-1.568,9.896-2.4c0.712-0.184,1.408-0.384,2.112-0.576
	c2.757-0.741,5.456-1.512,8.096-2.312l1.944-0.576c3.024-0.944,5.957-1.923,8.8-2.936c0.648-0.224,1.272-0.464,1.912-0.696
	c2.453-0.901,4.832-1.832,7.136-2.792c0.48-0.192,0.968-0.384,1.44-0.584c2.6-1.112,5.072-2.256,7.456-3.44
	c0.536-0.264,1.048-0.536,1.6-0.8c2.112-1.088,4.128-2.192,6.04-3.336c0.288-0.176,0.592-0.336,0.88-0.512
	c2.088-1.28,4-2.608,5.856-4c0.184-0.128,0.4-0.248,0.576-0.384L384,408.029z M464,95.389
	c0.129,56.882-28.625,109.94-76.352,140.888c-6.305,4.073-12.868,7.731-19.648,10.952c-14.373-6.806-27.697-15.634-39.568-26.216
	c-3.579-3.168-7.003-6.48-10.272-9.936c-23.013-24.275-38.265-54.861-43.808-87.848c-1.59-9.194-2.377-18.509-2.352-27.84v-39.36
	c6.054-0.014,12.102-0.35,18.12-1.008c10.931-1.219,21.715-3.518,32.192-6.864c6.714-2.109,13.287-4.642,19.68-7.584
	c7.928-3.647,15.554-7.917,22.808-12.768l3.568-2.4l14.816,8.44C407.818,47.944,435.62,55.576,464,56.029L464,95.389z"/>
<g>
	
		<linearGradient id="SVGID_2_" gradientUnits="userSpaceOnUse" x1="-6.5056" y1="550.5941" x2="-6.5056" y2="607.3561" gradientTransform="matrix(8 0 0 -8 455.0002 4869.2617)">
		<stop  offset="0" style="stop-color:#006DF0"/>
		<stop  offset="1" style="stop-color:#00E7F0"/>
	</linearGradient>
	<path style="fill:url(#SVGID_2_);" d="M364,213.205c-3.837,2.196-5.168,7.087-2.972,10.924c2.196,3.837,7.087,5.168,10.924,2.972
		c2.4-1.368,4.68-2.776,6.92-4.232c35.483-23.106,59.733-59.952,66.92-101.68c0.846-4.337-1.984-8.538-6.321-9.383
		c-4.337-0.846-8.538,1.984-9.384,6.321c-0.024,0.124-0.046,0.249-0.064,0.375c-6.437,37.326-28.128,70.284-59.864,90.96
		C368.187,210.752,366.133,212,364,213.205L364,213.205z"/>
	
		<linearGradient id="SVGID_3_" gradientUnits="userSpaceOnUse" x1="-1.875" y1="550.5941" x2="-1.875" y2="607.3561" gradientTransform="matrix(8 0 0 -8 455.0002 4869.2617)">
		<stop  offset="0" style="stop-color:#006DF0"/>
		<stop  offset="1" style="stop-color:#00E7F0"/>
	</linearGradient>
	<path style="fill:url(#SVGID_3_);" d="M440,103.389c4.418,0,8-3.582,8-8v-17.2c0-4.418-3.582-8-8-8s-8,3.582-8,8v17.2
		C432,99.807,435.582,103.389,440,103.389z"/>
</g>
<g>
</g>
<g>
</g>
<g>
</g>
<g>
</g>
<g>
</g>
<g>
</g>
<g>
</g>
<g>
</g>
<g>
</g>
<g>
</g>
<g>
</g>
<g>
</g>
<g>
</g>
<g>
</g>
<g>
</g>
</svg>
