<?xml version="1.0" encoding="iso-8859-1"?>
<!-- Generator: Adobe Illustrator 19.0.0, SVG Export Plug-In . SVG Version: 6.00 Build 0)  -->
<svg version="1.1" id="Capa_1" xmlns="http://www.w3.org/2000/svg" xmlns:xlink="http://www.w3.org/1999/xlink" x="0px" y="0px"
	 viewBox="0 0 480.079 480.079" style="enable-background:new 0 0 480.079 480.079;" xml:space="preserve">
<linearGradient id="SVGID_1_" gradientUnits="userSpaceOnUse" x1="-49.875" y1="557.6248" x2="-49.875" y2="617.0477" gradientTransform="matrix(8 0 0 -8 455 4941.3579)">
	<stop  offset="0" style="stop-color:#006DF0"/>
	<stop  offset="1" style="stop-color:#00E7F0"/>
</linearGradient>
<path style="fill:url(#SVGID_1_);" d="M56,448.04c13.255,0,24-10.745,24-24s-10.745-24-24-24s-24,10.745-24,24
	S42.745,448.04,56,448.04L56,448.04z M56,416.04c4.418,0,8,3.582,8,8s-3.582,8-8,8s-8-3.582-8-8S51.582,416.04,56,416.04z"/>
<g>
	
		<linearGradient id="SVGID_2_" gradientUnits="userSpaceOnUse" x1="-38.875" y1="557.6248" x2="-38.875" y2="617.0477" gradientTransform="matrix(8 0 0 -8 455 4941.3579)">
		<stop  offset="0" style="stop-color:#006DF0"/>
		<stop  offset="1" style="stop-color:#00E7F0"/>
	</linearGradient>
	<path style="fill:url(#SVGID_2_);" d="M104,432.04h80c4.418,0,8-3.582,8-8s-3.582-8-8-8h-80c-4.418,0-8,3.582-8,8
		S99.582,432.04,104,432.04z"/>
	
		<linearGradient id="SVGID_3_" gradientUnits="userSpaceOnUse" x1="-11.875" y1="557.6248" x2="-11.875" y2="617.0477" gradientTransform="matrix(8 0 0 -8 455 4941.3579)">
		<stop  offset="0" style="stop-color:#006DF0"/>
		<stop  offset="1" style="stop-color:#00E7F0"/>
	</linearGradient>
	<path style="fill:url(#SVGID_3_);" d="M360,448.04c4.418,0,8-3.582,8-8v-32c0-4.418-3.582-8-8-8s-8,3.582-8,8v32
		C352,444.458,355.582,448.04,360,448.04z"/>
	
		<linearGradient id="SVGID_4_" gradientUnits="userSpaceOnUse" x1="-15.875" y1="557.6248" x2="-15.875" y2="617.0477" gradientTransform="matrix(8 0 0 -8 455 4941.3579)">
		<stop  offset="0" style="stop-color:#006DF0"/>
		<stop  offset="1" style="stop-color:#00E7F0"/>
	</linearGradient>
	<path style="fill:url(#SVGID_4_);" d="M328,448.04c4.418,0,8-3.582,8-8v-32c0-4.418-3.582-8-8-8s-8,3.582-8,8v32
		C320,444.458,323.582,448.04,328,448.04z"/>
	
		<linearGradient id="SVGID_5_" gradientUnits="userSpaceOnUse" x1="-19.875" y1="557.6248" x2="-19.875" y2="617.0477" gradientTransform="matrix(8 0 0 -8 455 4941.3579)">
		<stop  offset="0" style="stop-color:#006DF0"/>
		<stop  offset="1" style="stop-color:#00E7F0"/>
	</linearGradient>
	<path style="fill:url(#SVGID_5_);" d="M296,448.04c4.418,0,8-3.582,8-8v-32c0-4.418-3.582-8-8-8s-8,3.582-8,8v32
		C288,444.458,291.582,448.04,296,448.04z"/>
	
		<linearGradient id="SVGID_6_" gradientUnits="userSpaceOnUse" x1="-23.875" y1="557.6248" x2="-23.875" y2="617.0477" gradientTransform="matrix(8 0 0 -8 455 4941.3579)">
		<stop  offset="0" style="stop-color:#006DF0"/>
		<stop  offset="1" style="stop-color:#00E7F0"/>
	</linearGradient>
	<path style="fill:url(#SVGID_6_);" d="M264,448.04c4.418,0,8-3.582,8-8v-32c0-4.418-3.582-8-8-8s-8,3.582-8,8v32
		C256,444.458,259.582,448.04,264,448.04z"/>
	
		<linearGradient id="SVGID_7_" gradientUnits="userSpaceOnUse" x1="-27.875" y1="557.6248" x2="-27.875" y2="617.0477" gradientTransform="matrix(8 0 0 -8 455 4941.3579)">
		<stop  offset="0" style="stop-color:#006DF0"/>
		<stop  offset="1" style="stop-color:#00E7F0"/>
	</linearGradient>
	<path style="fill:url(#SVGID_7_);" d="M232,448.04c4.418,0,8-3.582,8-8v-32c0-4.418-3.582-8-8-8s-8,3.582-8,8v32
		C224,444.458,227.582,448.04,232,448.04z"/>
</g>
<linearGradient id="SVGID_8_" gradientUnits="userSpaceOnUse" x1="-26.87" y1="557.6647" x2="-26.87" y2="617.0847" gradientTransform="matrix(8 0 0 -8 455 4941.3579)">
	<stop  offset="0" style="stop-color:#006DF0"/>
	<stop  offset="1" style="stop-color:#00E7F0"/>
</linearGradient>
<path style="fill:url(#SVGID_8_);" d="M431.904,76.096c-1.834-38.207-30.533-69.732-68.4-75.136c-1.079-0.578-2.28-0.893-3.504-0.92
	h-8c-17.272,0.048-34.07,5.658-47.904,16H40c-4.149-0.017-7.622,3.14-8,7.272l-32,352v0.728v96c0,4.418,3.582,8,8,8h384
	c4.418,0,8-3.582,8-8v-96c0-0.128,0-0.576,0-0.696L386.088,216.04H408c39.764,0.044,72.036-32.156,72.079-71.92
	C480.113,113.509,460.79,86.224,431.904,76.096L431.904,76.096z M384,464.04H16v-80h368V464.04z M383.272,368.04H16.8l30.504-336
	H288c-0.184,0.248-0.336,0.52-0.52,0.8c-1.232,1.691-2.395,3.419-3.488,5.184c-0.4,0.648-0.8,1.312-1.144,1.968
	c-0.864,1.477-1.664,2.984-2.4,4.52c-0.36,0.728-0.712,1.456-1.056,2.2c-0.728,1.6-1.392,3.2-2.008,4.8
	c-0.256,0.672-0.536,1.328-0.8,2c-0.8,2.304-1.544,4.64-2.128,7.016c-8.498-2.993-17.446-4.511-26.456-4.488
	c-44.183,0-80,35.817-80,80s35.817,80,80,80h122.024L383.272,368.04z M408,200.04H248c-35.346,0-64-28.654-64-64s28.654-64,64-64
	c10.027-0.029,19.916,2.332,28.848,6.888c3.937,2.005,8.754,0.438,10.759-3.499c0.441-0.867,0.721-1.806,0.825-2.773
	c0.225-1.972,0.559-3.929,1-5.864c3.027-14.381,10.911-27.282,22.328-36.536c11.382-9.221,25.592-14.241,40.24-14.216
	c2.313-0.002,4.624,0.135,6.92,0.408h0.264c32.393,3.589,56.884,31,56.816,63.592v1.032c-0.486,3.994,2.069,7.728,5.968,8.72
	c29.96,7.676,48.026,38.186,40.35,68.146C455.965,182.738,433.601,200.072,408,200.04L408,200.04z"/>
<g>
</g>
<g>
</g>
<g>
</g>
<g>
</g>
<g>
</g>
<g>
</g>
<g>
</g>
<g>
</g>
<g>
</g>
<g>
</g>
<g>
</g>
<g>
</g>
<g>
</g>
<g>
</g>
<g>
</g>
</svg>
