<?xml version="1.0" encoding="iso-8859-1"?>
<!-- Generator: Adobe Illustrator 19.0.0, SVG Export Plug-In . SVG Version: 6.00 Build 0)  -->
<svg version="1.1" id="Capa_1" xmlns="http://www.w3.org/2000/svg" xmlns:xlink="http://www.w3.org/1999/xlink" x="0px" y="0px"
	 viewBox="0 0 512 512" style="enable-background:new 0 0 512 512;" xml:space="preserve">
<g>
	<path style="fill:#2E4F5A;" d="M104.2,123.5h19.3V73.8h-19.3c-3.3,0-6,2.7-6,6v37.7C98.2,120.8,100.9,123.5,104.2,123.5z"/>
	<path style="fill:#2E4F5A;" d="M104.2,164.9h19.3V140h-19.3c-3.3,0-6,2.7-6,6v12.9C98.2,162.2,100.9,164.9,104.2,164.9z"/>
	<path style="fill:#2E4F5A;" d="M388.5,98.6h19.3c3.3,0,6-2.7,6-6V79.8c0-3.3-2.7-6-6-6h-19.3V98.6z"/>
	<path style="fill:#2E4F5A;" d="M115.2,40.6c0-18.3,14.8-33.1,33.1-33.1h215.4c18.3,0,33.1,14.8,33.1,33.1v430.7
		c0,18.3-14.8,33.1-33.1,33.1H148.3c-18.3,0-33.1-14.8-33.1-33.1C115.2,471.4,115.2,40.6,115.2,40.6z"/>
</g>
<path style="fill:#2A4752;" d="M363.7,7.5h-24.9c18.3,0,33.1,14.8,33.1,33.1v430.7c0,18.3-14.8,33.1-33.1,33.1h24.9
	c18.3,0,33.1-14.8,33.1-33.1V40.6C396.8,22.3,382,7.5,363.7,7.5z"/>
<rect x="115.2" y="73.8" style="fill:#00A7CC;" width="281.6" height="364.5"/>
<circle style="fill:#F4B641;" cx="256" cy="256" r="82.8"/>
<rect x="372" y="73.8" style="fill:#0095C2;" width="24.8" height="364.5"/>
<g>
	<path style="fill:#121212;" d="M363.7,512H148.3c-22.4,0-40.6-18.2-40.6-40.6V40.6c0-22.4,18.2-40.6,40.6-40.6h215.4
		c22.4,0,40.6,18.2,40.6,40.6v430.7C404.3,493.8,386.1,512,363.7,512z M148.3,15c-14.1,0-25.6,11.5-25.6,25.6v430.7
		c0,14.1,11.5,25.6,25.6,25.6h215.4c14.1,0,25.6-11.5,25.6-25.6V40.6c0-14.1-11.5-25.6-25.6-25.6C363.7,15,148.3,15,148.3,15z"/>
	<path style="fill:#121212;" d="M396.8,81.3H196.7c-4.1,0-7.5-3.4-7.5-7.5s3.4-7.5,7.5-7.5h200.1c4.1,0,7.5,3.4,7.5,7.5
		S401,81.3,396.8,81.3z"/>
	<path style="fill:#121212;" d="M166.7,81.3h-51.5c-4.1,0-7.5-3.4-7.5-7.5s3.4-7.5,7.5-7.5h51.5c4.1,0,7.5,3.4,7.5,7.5
		S170.9,81.3,166.7,81.3z"/>
	<path style="fill:#121212;" d="M280.9,48.4h-49.7c-4.1,0-7.5-3.4-7.5-7.5s3.4-7.5,7.5-7.5h49.7c4.1,0,7.5,3.4,7.5,7.5
		S285,48.4,280.9,48.4z"/>
	<path style="fill:#121212;" d="M396.8,445.7H115.2c-4.1,0-7.5-3.4-7.5-7.5s3.4-7.5,7.5-7.5h281.6c4.1,0,7.5,3.4,7.5,7.5
		S401,445.7,396.8,445.7z"/>
	<path style="fill:#121212;" d="M115.2,131h-17c-4.1,0-7.5-3.4-7.5-7.5V73.8c0-4.1,3.4-7.5,7.5-7.5h17c4.1,0,7.5,3.4,7.5,7.5v49.7
		C122.7,127.6,119.3,131,115.2,131z M105.7,116h2V81.3h-2V116z"/>
	<path style="fill:#121212;" d="M115.2,172.4h-17c-4.1,0-7.5-3.4-7.5-7.5V140c0-4.1,3.4-7.5,7.5-7.5h17c4.1,0,7.5,3.4,7.5,7.5v24.8
		C122.7,169,119.3,172.4,115.2,172.4z M105.7,157.4h2v-9.8h-2V157.4z"/>
	<path style="fill:#121212;" d="M413.8,106.1h-17c-4.1,0-7.5-3.4-7.5-7.5V73.8c0-4.1,3.4-7.5,7.5-7.5h17c4.1,0,7.5,3.4,7.5,7.5v24.9
		C421.3,102.8,417.9,106.1,413.8,106.1z M404.3,91.1h2v-9.9h-2V91.1z"/>
	<path style="fill:#121212;" d="M256,263.5c-17.8,0-32.4-14.5-32.4-32.4c0-17.8,14.5-32.3,32.4-32.3s32.3,14.5,32.3,32.3
		c0,4.1-3.4,7.5-7.5,7.5s-7.5-3.4-7.5-7.5c0-9.6-7.8-17.3-17.3-17.3c-9.6,0-17.4,7.8-17.4,17.3c0,9.6,7.8,17.4,17.4,17.4
		c4.1,0,7.5,3.4,7.5,7.5S260.1,263.5,256,263.5z"/>
	<path style="fill:#121212;" d="M256,313.2c-17.8,0-32.4-14.5-32.4-32.3c0-4.1,3.4-7.5,7.5-7.5s7.5,3.4,7.5,7.5
		c0,9.6,7.8,17.3,17.4,17.3c9.6,0,17.3-7.8,17.3-17.3c0-9.6-7.8-17.4-17.3-17.4c-4.1,0-7.5-3.4-7.5-7.5s3.4-7.5,7.5-7.5
		c17.8,0,32.3,14.5,32.3,32.4S273.8,313.2,256,313.2z"/>
	<path style="fill:#121212;" d="M256,321.5c-4.1,0-7.5-3.4-7.5-7.5V198c0-4.1,3.4-7.5,7.5-7.5s7.5,3.4,7.5,7.5v116
		C263.5,318.1,260.1,321.5,256,321.5z"/>
	<path style="fill:#121212;" d="M256,346.3c-49.8,0-90.3-40.5-90.3-90.3c0-21.4,7.6-42.2,21.5-58.5c2.7-3.2,7.4-3.5,10.6-0.8
		c3.2,2.7,3.5,7.4,0.8,10.6c-11.6,13.6-18,30.9-18,48.8c0,41.5,33.8,75.3,75.3,75.3s75.3-33.8,75.3-75.3s-33.8-75.3-75.3-75.3
		c-12.6,0-25.1,3.2-36.1,9.2c-3.6,2-8.2,0.7-10.2-3c-2-3.6-0.7-8.2,3-10.2c13.2-7.2,28.2-11,43.3-11c49.8,0,90.3,40.5,90.3,90.3
		C346.3,305.8,305.8,346.3,256,346.3z"/>
</g>
<g>
</g>
<g>
</g>
<g>
</g>
<g>
</g>
<g>
</g>
<g>
</g>
<g>
</g>
<g>
</g>
<g>
</g>
<g>
</g>
<g>
</g>
<g>
</g>
<g>
</g>
<g>
</g>
<g>
</g>
</svg>
