<?xml version="1.0" ?><!DOCTYPE svg  PUBLIC '-//W3C//DTD SVG 1.1//EN'  'http://www.w3.org/Graphics/SVG/1.1/DTD/svg11.dtd'><svg enable-background="new 0 0 100 100" height="100px" id="Layer_1" version="1.1" viewBox="0 0 100 100" width="100px" xml:space="preserve" xmlns="http://www.w3.org/2000/svg" xmlns:xlink="http://www.w3.org/1999/xlink"><g><g><rect clip-rule="evenodd" fill="#39B6CC" fill-rule="evenodd" height="59.668" width="83.471" x="8.264" y="12.895"/><path d="M91.734,73.921H8.264c-0.75,0-1.359-0.608-1.359-1.358V12.895c0-0.75,0.609-1.359,1.359-1.359h83.471    c0.752,0,1.359,0.608,1.359,1.359v59.668C93.094,73.313,92.486,73.921,91.734,73.921z M9.623,71.204h80.754V14.253H9.623V71.204z"/></g><g><polygon clip-rule="evenodd" fill="#F2F2F2" fill-rule="evenodd" points="33.93,80.07 66.07,80.07 63.266,72.563 36.729,72.563       "/><path d="M66.07,81.428H33.93c-0.445,0-0.861-0.218-1.115-0.583c-0.254-0.366-0.313-0.833-0.158-1.25l2.799-7.507    c0.199-0.531,0.707-0.884,1.273-0.884h26.537c0.566,0,1.074,0.352,1.273,0.883l2.803,7.507c0.156,0.417,0.098,0.884-0.156,1.25    S66.514,81.428,66.07,81.428z M35.887,78.711h28.225l-1.789-4.791h-24.65L35.887,78.711z"/></g><g><rect clip-rule="evenodd" fill="#39B6CC" fill-rule="evenodd" height="7.036" width="48.1" x="25.947" y="80.07"/><path d="M74.047,88.464h-48.1c-0.75,0-1.359-0.608-1.359-1.359V80.07c0-0.75,0.609-1.358,1.359-1.358h48.1    c0.752,0,1.359,0.608,1.359,1.358v7.036C75.406,87.856,74.799,88.464,74.047,88.464z M27.305,85.747h45.385v-4.319H27.305V85.747z    "/></g><g><rect clip-rule="evenodd" fill="#F2F2F2" fill-rule="evenodd" height="42.177" width="83.471" x="8.264" y="21.58"/><path d="M91.734,65.115H8.264c-0.75,0-1.359-0.608-1.359-1.358V21.58c0-0.75,0.609-1.359,1.359-1.359h83.471    c0.752,0,1.359,0.608,1.359,1.359v42.177C93.094,64.507,92.486,65.115,91.734,65.115z M9.623,62.398h80.754v-39.46H9.623V62.398z"/></g><g><path clip-rule="evenodd" d="M20.205,30.361c-0.293,2.01-0.188,7.709-0.072,9.912    c0.289,5.463,3.111,9.863,6.68,13.278c0.693,0.664,4.676,4.044,5.781,4.131c2.01,0.149,8.295-5.863,10.324-9.475    c2.529-4.501,2.973-11.436,2.338-17.751c-0.813-0.235-11.57-2.549-12.461-2.549L20.205,30.361z" fill="#FF7C24" fill-rule="evenodd"/><path d="M32.668,59.044L32.668,59.044c-0.059,0-0.119-0.002-0.176-0.006c-0.586-0.046-1.443-0.335-3.773-2.127    c-1.209-0.932-2.43-1.979-2.846-2.378c-4.436-4.245-6.824-9.018-7.098-14.188c-0.107-2.079-0.238-7.96,0.084-10.18L19,29.212    l13.664-2.662h0.131c1.197,0,12.225,2.424,12.838,2.603l0.883,0.256l0.092,0.913c0.449,4.465,0.721,12.813-2.506,18.552    C42.221,52.223,35.74,59.044,32.668,59.044z M21.457,31.501c-0.152,2.343-0.072,6.71,0.033,8.701    c0.234,4.456,2.342,8.617,6.262,12.368c0.949,0.91,4.047,3.404,4.963,3.748c0.393-0.088,1.799-0.773,4.271-3.11    c2.025-1.913,3.889-4.137,4.748-5.665c1.992-3.547,2.803-9.337,2.258-15.992c-2.611-0.592-9.861-2.121-11.119-2.273L21.457,31.501    z"/></g><g><path d="M30.732,46.826c-0.4,0-0.779-0.175-1.037-0.48l-3.707-4.376c-0.486-0.572-0.414-1.43,0.158-1.915    c0.572-0.485,1.43-0.414,1.914,0.159l2.637,3.111l6.453-8.15c0.465-0.588,1.32-0.688,1.908-0.222s0.688,1.32,0.223,1.908    l-7.484,9.45c-0.252,0.319-0.635,0.508-1.043,0.515C30.746,46.826,30.74,46.826,30.732,46.826z" fill="#F2F2F2"/></g><g><rect clip-rule="evenodd" fill="#39B6CC" fill-rule="evenodd" height="8.561" width="26.064" x="54.096" y="28.385"/></g><g><rect height="2.717" width="26.064" x="54.096" y="40.17"/></g><g><rect height="2.717" width="18.504" x="54.096" y="46.763"/></g><g><rect height="2.717" width="18.615" x="54.096" y="53.419"/></g><g><rect height="2.717" width="3.793" x="74.977" y="46.763"/></g><g><rect fill="#F2F2F2" height="2.717" width="3.266" x="83.17" y="66.63"/></g></g></svg>