<?xml version="1.0" encoding="iso-8859-1"?>
<!-- Generator: Adobe Illustrator 19.0.0, SVG Export Plug-In . SVG Version: 6.00 Build 0)  -->
<svg xmlns="http://www.w3.org/2000/svg" xmlns:xlink="http://www.w3.org/1999/xlink" version="1.1" id="Capa_1" x="0px" y="0px" viewBox="0 0 512 512" style="enable-background:new 0 0 512 512;" xml:space="preserve" width="512px" height="512px">
<g>
	<g>
		<path d="M480,143.686H378.752c7.264-4.96,13.504-9.888,17.856-14.304c25.792-25.952,25.792-68.192,0-94.144    c-25.056-25.216-68.768-25.248-93.856,0c-13.856,13.92-50.688,70.592-45.6,108.448h-2.304    c5.056-37.856-31.744-94.528-45.6-108.448c-25.088-25.248-68.8-25.216-93.856,0C89.6,61.19,89.6,103.43,115.36,129.382    c4.384,4.416,10.624,9.344,17.888,14.304H32c-17.632,0-32,14.368-32,32v80c0,8.832,7.168,16,16,16h16v192    c0,17.632,14.368,32,32,32h384c17.632,0,32-14.368,32-32v-192h16c8.832,0,16-7.168,16-16v-80    C512,158.054,497.632,143.686,480,143.686z M138.08,57.798c6.496-6.528,15.104-10.112,24.256-10.112    c9.12,0,17.728,3.584,24.224,10.112c21.568,21.696,43.008,77.12,35.552,84.832c0,0-1.344,1.056-5.92,1.056    c-22.112,0-64.32-22.976-78.112-36.864C124.672,93.318,124.672,71.302,138.08,57.798z M240,463.686H64v-192h176V463.686z     M240,239.686H32v-64h184.192H240V239.686z M325.44,57.798c12.992-13.024,35.52-12.992,48.48,0    c13.408,13.504,13.408,35.52,0,49.024c-13.792,13.888-56,36.864-78.112,36.864c-4.576,0-5.92-1.024-5.952-1.056    C282.432,134.918,303.872,79.494,325.44,57.798z M448,463.686H272v-192h176V463.686z M480,239.686H272v-64h23.808H480V239.686z" fill="#000111"/>
	</g>
</g>
<g>
</g>
<g>
</g>
<g>
</g>
<g>
</g>
<g>
</g>
<g>
</g>
<g>
</g>
<g>
</g>
<g>
</g>
<g>
</g>
<g>
</g>
<g>
</g>
<g>
</g>
<g>
</g>
<g>
</g>
</svg>
