<?xml version="1.0" encoding="iso-8859-1"?>
<!-- Generator: Adobe Illustrator 19.0.0, SVG Export Plug-In . SVG Version: 6.00 Build 0)  -->
<svg version="1.1" id="Capa_1" xmlns="http://www.w3.org/2000/svg" xmlns:xlink="http://www.w3.org/1999/xlink" x="0px" y="0px"
	 viewBox="0 0 480 480" style="enable-background:new 0 0 480 480;" xml:space="preserve">
<linearGradient id="SVGID_1_" gradientUnits="userSpaceOnUse" x1="-26.8742" y1="561.185" x2="-26.8742" y2="617.693" gradientTransform="matrix(8 0 0 -8 455 4941)">
	<stop  offset="0" style="stop-color:#006DF0"/>
	<stop  offset="1" style="stop-color:#00E7F0"/>
</linearGradient>
<path style="fill:url(#SVGID_1_);" d="M246.864,64.168c-75.015-3.791-138.9,53.948-142.691,128.963
	C104.058,195.419,104,197.709,104,200c0.068,48.653,26.063,93.58,68.208,117.888c7.328,4.271,11.823,12.126,11.792,20.608V432
	c0,4.418,3.582,8,8,8h8c0,22.091,17.909,40,40,40s40-17.909,40-40h8c4.418,0,8-3.582,8-8v-93.472
	c-0.158-8.317,4.149-16.082,11.288-20.352c65.27-37.168,88.051-120.21,50.884-185.48C335.198,92.352,293.231,66.515,246.864,64.168
	L246.864,64.168z M280,344v16h-80v-16.216L280,344z M200,376h80v16.408c-45.6-0.208-68.336-0.288-80,0V376z M240,464
	c-13.255,0-24-10.745-24-24h48C264,453.255,253.255,464,240,464z M200,424v-15.72c15.352-0.096,51.528,0,80,0.128V424H200z
	 M299.376,304.272c-8.933,5.18-15.415,13.728-17.992,23.728l-82.864-0.2c-2.75-10.033-9.336-18.582-18.336-23.8
	C143,282.558,120.063,242.923,120,200c-0.001-66.274,53.724-120.001,119.998-120.002c2.026,0,4.051,0.051,6.074,0.154
	c66.189,3.36,117.122,59.74,113.762,125.929C357.758,246.984,334.964,284.003,299.376,304.272L299.376,304.272z"/>
<g>
	
		<linearGradient id="SVGID_2_" gradientUnits="userSpaceOnUse" x1="-45.9218" y1="561.185" x2="-45.9218" y2="617.693" gradientTransform="matrix(8 0 0 -8 455 4941)">
		<stop  offset="0" style="stop-color:#006DF0"/>
		<stop  offset="1" style="stop-color:#00E7F0"/>
	</linearGradient>
	<path style="fill:url(#SVGID_2_);" d="M69.72,110.928l27.72,16c3.812,2.234,8.713,0.956,10.947-2.856
		c2.234-3.812,0.956-8.713-2.856-10.947c-0.03-0.018-0.061-0.035-0.092-0.053l-27.72-16c-3.841-2.184-8.725-0.841-10.909,3
		C64.648,103.877,65.944,108.714,69.72,110.928z"/>
	
		<linearGradient id="SVGID_3_" gradientUnits="userSpaceOnUse" x1="-45.9275" y1="561.185" x2="-45.9275" y2="617.693" gradientTransform="matrix(8 0 0 -8 455 4941)">
		<stop  offset="0" style="stop-color:#006DF0"/>
		<stop  offset="1" style="stop-color:#00E7F0"/>
	</linearGradient>
	<path style="fill:url(#SVGID_3_);" d="M97.44,273.072l-27.72,16c-3.841,2.183-5.185,7.067-3.002,10.908
		c2.183,3.841,7.067,5.185,10.908,3.002c0.031-0.018,0.062-0.036,0.093-0.054l27.72-16c3.841-2.183,5.185-7.067,3.002-10.908
		c-2.183-3.841-7.067-5.185-10.908-3.002C97.502,273.036,97.471,273.054,97.44,273.072z"/>
	
		<linearGradient id="SVGID_4_" gradientUnits="userSpaceOnUse" x1="-7.8225" y1="561.185" x2="-7.8225" y2="617.693" gradientTransform="matrix(8 0 0 -8 455 4941)">
		<stop  offset="0" style="stop-color:#006DF0"/>
		<stop  offset="1" style="stop-color:#00E7F0"/>
	</linearGradient>
	<path style="fill:url(#SVGID_4_);" d="M410.28,289.072l-27.72-16c-3.811-2.235-8.713-0.957-10.948,2.854
		c-2.235,3.811-0.957,8.713,2.854,10.948c0.031,0.018,0.062,0.036,0.093,0.054l27.72,16c3.811,2.235,8.713,0.957,10.948-2.854
		c2.235-3.811,0.957-8.713-2.854-10.948C410.342,289.108,410.311,289.09,410.28,289.072z"/>
	
		<linearGradient id="SVGID_5_" gradientUnits="userSpaceOnUse" x1="-7.8186" y1="561.185" x2="-7.8186" y2="617.693" gradientTransform="matrix(8 0 0 -8 455 4941)">
		<stop  offset="0" style="stop-color:#006DF0"/>
		<stop  offset="1" style="stop-color:#00E7F0"/>
	</linearGradient>
	<path style="fill:url(#SVGID_5_);" d="M378.568,128c1.405,0.003,2.785-0.367,4-1.072l27.72-16c3.841-2.184,5.184-7.068,3-10.909
		s-7.068-5.184-10.909-3c-0.031,0.017-0.061,0.035-0.092,0.053l-27.72,16c-3.826,2.209-5.137,7.102-2.928,10.928
		C373.069,126.475,375.71,128,378.568,128L378.568,128z"/>
	
		<linearGradient id="SVGID_6_" gradientUnits="userSpaceOnUse" x1="-15.8767" y1="561.185" x2="-15.8767" y2="617.693" gradientTransform="matrix(8 0 0 -8 455 4941)">
		<stop  offset="0" style="stop-color:#006DF0"/>
		<stop  offset="1" style="stop-color:#00E7F0"/>
	</linearGradient>
	<path style="fill:url(#SVGID_6_);" d="M316,68.368c3.826,2.209,8.719,0.898,10.928-2.928l16-27.72
		c2.183-3.841,0.84-8.725-3.002-10.908c-3.805-2.163-8.641-0.867-10.854,2.908l-16,27.72C310.863,61.266,312.174,66.159,316,68.368
		L316,68.368z"/>
	
		<linearGradient id="SVGID_7_" gradientUnits="userSpaceOnUse" x1="-26.875" y1="561.185" x2="-26.875" y2="617.693" gradientTransform="matrix(8 0 0 -8 455 4941)">
		<stop  offset="0" style="stop-color:#006DF0"/>
		<stop  offset="1" style="stop-color:#00E7F0"/>
	</linearGradient>
	<path style="fill:url(#SVGID_7_);" d="M240,48c4.418,0,8-3.582,8-8V8c0-4.418-3.582-8-8-8s-8,3.582-8,8v32
		C232,44.418,235.582,48,240,48z"/>
	
		<linearGradient id="SVGID_8_" gradientUnits="userSpaceOnUse" x1="-37.8717" y1="561.185" x2="-37.8717" y2="617.693" gradientTransform="matrix(8 0 0 -8 455 4941)">
		<stop  offset="0" style="stop-color:#006DF0"/>
		<stop  offset="1" style="stop-color:#00E7F0"/>
	</linearGradient>
	<path style="fill:url(#SVGID_8_);" d="M153.072,65.44c2.184,3.841,7.068,5.184,10.909,3c3.841-2.184,5.184-7.068,3-10.909
		c-0.017-0.031-0.035-0.061-0.053-0.092l-16-27.72c-2.234-3.812-7.136-5.09-10.947-2.856c-3.776,2.214-5.072,7.051-2.909,10.856
		L153.072,65.44z"/>
	
		<linearGradient id="SVGID_9_" gradientUnits="userSpaceOnUse" x1="-48.875" y1="561.185" x2="-48.875" y2="617.693" gradientTransform="matrix(8 0 0 -8 455 4941)">
		<stop  offset="0" style="stop-color:#006DF0"/>
		<stop  offset="1" style="stop-color:#00E7F0"/>
	</linearGradient>
	<path style="fill:url(#SVGID_9_);" d="M88,200c0-4.418-3.582-8-8-8H48c-4.418,0-8,3.582-8,8s3.582,8,8,8h32
		C84.418,208,88,204.418,88,200z"/>
	
		<linearGradient id="SVGID_10_" gradientUnits="userSpaceOnUse" x1="-4.875" y1="561.185" x2="-4.875" y2="617.693" gradientTransform="matrix(8 0 0 -8 455 4941)">
		<stop  offset="0" style="stop-color:#006DF0"/>
		<stop  offset="1" style="stop-color:#00E7F0"/>
	</linearGradient>
	<path style="fill:url(#SVGID_10_);" d="M432,192h-32c-4.418,0-8,3.582-8,8s3.582,8,8,8h32c4.418,0,8-3.582,8-8S436.418,192,432,192
		z"/>
	
		<linearGradient id="SVGID_11_" gradientUnits="userSpaceOnUse" x1="-27.0403" y1="561.185" x2="-27.0403" y2="617.693" gradientTransform="matrix(8 0 0 -8 455 4941)">
		<stop  offset="0" style="stop-color:#006DF0"/>
		<stop  offset="1" style="stop-color:#00E7F0"/>
	</linearGradient>
	<path style="fill:url(#SVGID_11_);" d="M300.848,167.832L216,252.688l-39.6-39.6c-3.178-3.069-8.243-2.981-11.312,0.197
		c-2.994,3.1-2.994,8.015,0,11.115l45.256,45.256c3.124,3.123,8.188,3.123,11.312,0l90.512-90.504c3.126-3.126,3.126-8.194,0-11.32
		S303.974,164.706,300.848,167.832L300.848,167.832z"/>
</g>
<g>
</g>
<g>
</g>
<g>
</g>
<g>
</g>
<g>
</g>
<g>
</g>
<g>
</g>
<g>
</g>
<g>
</g>
<g>
</g>
<g>
</g>
<g>
</g>
<g>
</g>
<g>
</g>
<g>
</g>
</svg>
