<?xml version="1.0" encoding="iso-8859-1"?>
<!-- Generator: Adobe Illustrator 19.0.0, SVG Export Plug-In . SVG Version: 6.00 Build 0)  -->
<svg version="1.1" id="Capa_1" xmlns="http://www.w3.org/2000/svg" xmlns:xlink="http://www.w3.org/1999/xlink" x="0px" y="0px"
	 viewBox="0 0 512 512" style="enable-background:new 0 0 512 512;" xml:space="preserve">
<path style="fill:#C1C1C1;" d="M256.127,478.718c-4.136,0-7.505-3.339-7.533-7.482l-0.128-18.589
	c-0.028-4.161,3.322-7.556,7.481-7.585c0.018,0,0.035,0,0.053,0c4.137,0,7.505,3.339,7.533,7.482l0.128,18.589
	c0.028,4.161-3.322,7.556-7.481,7.585C256.162,478.718,256.144,478.718,256.127,478.718z"/>
<path style="fill:#2E4F5A;" d="M256.121,512c-13.33,0-24.175-10.844-24.175-24.174c0-13.33,10.845-24.175,24.175-24.175
	c13.331,0,24.174,10.844,24.174,24.175C280.295,501.156,269.451,512,256.121,512z M256.121,478.718
	c-5.022,0-9.108,4.085-9.108,9.108c0,5.021,4.085,9.107,9.108,9.107c5.021,0,9.107-4.085,9.107-9.107
	C265.228,482.805,261.142,478.718,256.121,478.718z"/>
<path style="fill:#EEEEEF;" d="M464.263,452.6H47.737c-3.329,0-6.027-2.698-6.027-6.027V81.712h428.58v364.861
	C470.29,449.901,467.592,452.6,464.263,452.6z"/>
<path style="fill:#D9D9D9;" d="M445.564,81.712h24.726v364.861c0,3.329-2.698,6.027-6.027,6.027h-18.7V81.712z"/>
<path style="fill:#2E4F5A;" d="M321.936,24.018h175.139c3.414,0,6.182,2.767,6.182,6.182v53.573c0,3.414-2.767,6.182-6.182,6.182
	H14.924c-3.414,0-6.182-2.767-6.182-6.182V30.2c0-3.414,2.767-6.182,6.182-6.182h175.14"/>
<path style="fill:#2A4752;" d="M478.532,89.954h18.698c3.329,0,6.027-2.698,6.027-6.027V30.045c0-3.329-2.698-6.027-6.027-6.027
	h-18.698V89.954z"/>
<path style="fill:#F4B641;" d="M315.908,40.501H196.093c-3.329,0-6.027-2.698-6.027-6.027V13.561c0-3.329,2.698-6.027,6.027-6.027
	h119.815c3.329,0,6.027,2.698,6.027,6.027v20.913C321.935,37.802,319.236,40.501,315.908,40.501z"/>
<g>
	<path style="fill:#FB8436;" d="M315.908,40.501h-18.698V7.534h18.698c3.329,0,6.027,2.698,6.027,6.027v20.913
		C321.935,37.802,319.236,40.501,315.908,40.501z"/>
	<path style="fill:#FB8436;" d="M256,16.291c-4.268,0-7.727,3.459-7.727,7.727v16.484l0,0h15.454l0,0V24.017
		C263.727,19.75,260.268,16.291,256,16.291z"/>
</g>
<rect x="8.742" y="57.698" style="fill:#00B8A4;" width="494.519" height="15.067"/>
<rect x="478.527" y="57.698" style="fill:#00AA96;" width="24.725" height="15.067"/>
<circle style="fill:#00A7CC;" cx="354.905" cy="188.854" r="65.935"/>
<g>
	<path style="fill:#00B8A4;" d="M346.661,419.63h49.451V293.786c0-3.329-2.698-6.027-6.027-6.027h-37.397
		c-3.329,0-6.027,2.698-6.027,6.027V419.63z"/>
	<path style="fill:#00B8A4;" d="M231.275,419.63h49.451v-92.878c0-3.329-2.698-6.027-6.027-6.027h-37.397
		c-3.329,0-6.027,2.698-6.027,6.027L231.275,419.63L231.275,419.63z"/>
	<path style="fill:#00B8A4;" d="M115.888,419.63h49.451v-59.91c0-3.329-2.698-6.027-6.027-6.027h-37.397
		c-3.329,0-6.027,2.698-6.027,6.027C115.888,359.721,115.888,419.63,115.888,419.63z"/>
</g>
<g>
	<path style="fill:#2E4F5A;" d="M181.824,427.357h-82.42c-4.268,0-7.727-3.459-7.727-7.727c0-4.267,3.459-7.727,7.727-7.727h82.42
		c4.268,0,7.727,3.459,7.727,7.727C189.551,423.897,186.092,427.357,181.824,427.357z"/>
	<path style="fill:#2E4F5A;" d="M297.21,427.357H214.79c-4.268,0-7.727-3.459-7.727-7.727c0-4.267,3.459-7.727,7.727-7.727h82.419
		c4.268,0,7.727,3.459,7.727,7.727C304.936,423.897,301.478,427.357,297.21,427.357z"/>
	<path style="fill:#2E4F5A;" d="M412.596,427.357h-82.418c-4.268,0-7.727-3.459-7.727-7.727c0-4.267,3.459-7.727,7.727-7.727h82.418
		c4.268,0,7.727,3.459,7.727,7.727C420.322,423.897,416.864,427.357,412.596,427.357z"/>
</g>
<g>
	<path style="fill:#C1C1C1;" d="M223.032,163.617H91.161c-4.268,0-7.727-3.459-7.727-7.727v-32.967c0-4.267,3.459-7.727,7.727-7.727
		h131.872c4.268,0,7.727,3.459,7.727,7.727v32.967C230.76,160.157,227.3,163.617,223.032,163.617z M98.888,148.163h116.418v-17.514
		H98.888V148.163z"/>
	<path style="fill:#C1C1C1;" d="M190.066,196.583H91.161c-4.268,0-7.727-3.459-7.727-7.727s3.459-7.727,7.727-7.727h98.905
		c4.268,0,7.727,3.459,7.727,7.727S194.334,196.583,190.066,196.583z"/>
	<path style="fill:#C1C1C1;" d="M157.098,229.548H91.161c-4.268,0-7.727-3.459-7.727-7.727s3.459-7.727,7.727-7.727h65.938
		c4.268,0,7.727,3.459,7.727,7.727S161.366,229.548,157.098,229.548z"/>
</g>
<path style="fill:#F35657;" d="M308.283,142.236l46.619,46.619v-65.935c-18.207,0-34.69,7.379-46.621,19.31L308.283,142.236z"/>
<path style="fill:#F4B641;" d="M354.902,122.922v65.935h65.935C420.837,152.442,391.317,122.922,354.902,122.922z"/>
<g>
	<path style="fill:#121212;" d="M510.791,65.208v-41.19c0-4.161-3.372-7.534-7.534-7.534H329.468V7.534
		c0-4.161-3.372-7.534-7.534-7.534H190.066c-4.162,0-7.534,3.373-7.534,7.534v8.951H8.742c-4.162,0-7.534,3.373-7.534,7.534v65.936
		c0,4.161,3.372,7.534,7.534,7.534h25.434v355.111c0,4.161,3.372,7.534,7.534,7.534h206.808l0.032,4.739
		c-9.632,3.185-16.605,12.268-16.605,22.954c0,13.33,10.845,24.174,24.175,24.174c13.331,0,24.174-10.844,24.174-24.174
		c0-10.713-7.007-19.815-16.677-22.979l-0.032-4.714h206.707c4.162,0,7.534-3.373,7.534-7.534V97.487h25.433
		c4.162,0,7.534-3.373,7.534-7.534V65.247c0-0.007,0.001-0.013,0.001-0.019C510.792,65.221,510.791,65.215,510.791,65.208z
		 M197.6,15.067H314.4v17.9h-50.867v-8.95c0-4.161-3.372-7.534-7.534-7.534c-4.162,0-7.534,3.373-7.534,7.534v8.95h-50.867
		L197.6,15.067L197.6,15.067z M265.228,487.826c0,5.021-4.085,9.107-9.107,9.107c-5.022,0-9.108-4.085-9.108-9.107
		c0-5.021,4.085-9.108,9.108-9.108C261.142,478.718,265.228,482.805,265.228,487.826z M495.723,82.42h-25.433H144.12
		c-4.161,0-7.534,3.373-7.534,7.534s3.373,7.534,7.534,7.534h318.637v347.578H256.079c-0.026,0-0.051-0.004-0.078-0.004
		c-0.018,0-0.035,0-0.053,0c-0.023,0-0.045,0.004-0.068,0.004H49.244V97.487h64.741c4.162,0,7.534-3.373,7.534-7.534
		s-3.372-7.534-7.534-7.534H41.71H16.277v-9.659h479.448v9.659H495.723z M495.723,57.695H16.276V31.552h166.257v8.949
		c0,4.161,3.372,7.534,7.534,7.534h131.868c4.162,0,7.534-3.373,7.534-7.534v-8.949h166.256L495.723,57.695L495.723,57.695z"/>
	<path style="fill:#121212;" d="M354.903,262.324c40.51,0,73.468-32.957,73.468-73.468s-32.958-73.468-73.468-73.468
		c-19.952,0-38.061,8.006-51.314,20.959c-0.218,0.175-0.431,0.36-0.634,0.563c-0.203,0.203-0.389,0.416-0.563,0.635
		c-12.953,13.252-20.958,31.361-20.958,51.312C281.434,229.367,314.392,262.324,354.903,262.324z M362.437,130.958
		c26.186,3.39,46.975,24.179,50.365,50.365h-50.365V130.958z M347.37,130.958v39.71l-28.063-28.063
		C327.287,136.448,336.896,132.314,347.37,130.958z M308.652,153.26l40.924,40.924c0.011,0.011,0.023,0.02,0.034,0.031
		c0.165,0.163,0.337,0.319,0.516,0.466c0.062,0.051,0.128,0.094,0.191,0.143c0.133,0.102,0.265,0.205,0.405,0.298
		c0.066,0.044,0.135,0.081,0.202,0.123c0.143,0.089,0.285,0.179,0.435,0.258c0.06,0.032,0.124,0.058,0.185,0.088
		c0.16,0.079,0.319,0.159,0.485,0.227c0.053,0.022,0.108,0.038,0.162,0.059c0.175,0.067,0.352,0.134,0.532,0.189
		c0.054,0.017,0.111,0.027,0.166,0.042c0.18,0.05,0.36,0.098,0.544,0.135c0.083,0.016,0.168,0.025,0.252,0.038
		c0.158,0.026,0.314,0.054,0.474,0.069c0.229,0.023,0.459,0.033,0.689,0.035c0.018,0,0.036,0.003,0.054,0.003h57.899
		c-3.71,28.654-28.25,50.867-57.899,50.867c-32.203,0-58.402-26.198-58.402-58.401C296.501,175.466,301.043,163.123,308.652,153.26z
		"/>
	<path style="fill:#121212;" d="M223.741,320.726v91.371h-8.95c-4.162,0-7.534,3.373-7.534,7.534s3.372,7.534,7.534,7.534h16.484
		h49.451h16.484c4.162,0,7.534-3.373,7.534-7.534s-3.372-7.534-7.534-7.534h-8.95v-91.371c0-4.161-3.372-7.534-7.534-7.534h-49.451
		C227.113,313.192,223.741,316.565,223.741,320.726z M238.809,328.259h34.384v83.837h-34.384L238.809,328.259L238.809,328.259z"/>
	<path style="fill:#121212;" d="M181.823,412.097h-8.95v-58.404c0-4.161-3.372-7.534-7.534-7.534h-49.451
		c-4.162,0-7.534,3.373-7.534,7.534v58.404h-8.95c-4.162,0-7.534,3.373-7.534,7.534s3.372,7.534,7.534,7.534h16.484h49.451h16.484
		c4.162,0,7.534-3.373,7.534-7.534S185.985,412.097,181.823,412.097z M157.806,412.097h-34.384v-50.87h34.384V412.097z"/>
	<path style="fill:#121212;" d="M412.596,412.097h-8.95V287.759c0-4.161-3.372-7.534-7.534-7.534h-49.451
		c-4.162,0-7.534,3.373-7.534,7.534v124.337h-8.95c-4.162,0-7.534,3.373-7.534,7.534s3.372,7.534,7.534,7.534h16.484h49.451h16.484
		c4.162,0,7.534-3.373,7.534-7.534C420.13,415.47,416.758,412.097,412.596,412.097z M388.579,412.097h-34.384V295.293h34.384
		V412.097z"/>
	<path style="fill:#121212;" d="M83.628,122.922v32.967c0,4.161,3.372,7.534,7.534,7.534h131.871c4.162,0,7.534-3.373,7.534-7.534
		v-32.967c0-4.161-3.372-7.534-7.534-7.534H91.161C87.001,115.388,83.628,118.761,83.628,122.922z M98.695,130.456h116.804v17.9
		H98.695V130.456z"/>
	<path style="fill:#121212;" d="M190.066,181.322H91.16c-4.162,0-7.534,3.373-7.534,7.534s3.372,7.534,7.534,7.534h98.906
		c4.162,0,7.534-3.373,7.534-7.534S194.228,181.322,190.066,181.322z"/>
	<path style="fill:#121212;" d="M164.632,221.822c0-4.161-3.372-7.534-7.534-7.534H91.16c-4.162,0-7.534,3.373-7.534,7.534
		s3.372,7.534,7.534,7.534h65.939C161.259,229.355,164.632,225.982,164.632,221.822z"/>
</g>
<g>
</g>
<g>
</g>
<g>
</g>
<g>
</g>
<g>
</g>
<g>
</g>
<g>
</g>
<g>
</g>
<g>
</g>
<g>
</g>
<g>
</g>
<g>
</g>
<g>
</g>
<g>
</g>
<g>
</g>
</svg>
