<?xml version="1.0" ?><svg viewBox="0 0 128 128" xmlns="http://www.w3.org/2000/svg"><defs><style>.cls-1{fill:#c3edf5;}.cls-2{fill:#87dbec;}.cls-3{fill:#4d91bb;}.cls-4{fill:#4dbab4;}.cls-5{fill:#e88f8d;}.cls-6{fill:#ffda75;}.cls-7{fill:#c2e085;}</style></defs><title/><g data-name="22 Page Quality" id="_22_Page_Quality"><rect class="cls-1" height="90" width="90" x="19" y="19"/><polygon class="cls-2" points="19 82.15 109 84.65 109 82.15 19 82.15"/><circle class="cls-2" cx="65.46" cy="75.46" r="15"/><rect class="cls-3" height="20" width="90" x="19" y="19"/><rect class="cls-4" height="16" width="90" x="19" y="66"/><circle class="cls-4" cx="64" cy="74" r="15"/><polygon class="cls-1" points="64 79.02 58.06 82.15 59.19 75.53 54.38 70.84 61.03 69.88 64 63.85 66.97 69.88 73.62 70.84 68.81 75.53 69.94 82.15 64 79.02"/><circle class="cls-5" cx="26.24" cy="29" r="3"/><circle class="cls-6" cx="35.24" cy="29" r="3"/><circle class="cls-7" cx="44.24" cy="29" r="3"/><polygon class="cls-2" points="19 39 109 43.5 109 39 19 39"/></g></svg>