<?xml version="1.0" encoding="iso-8859-1"?>
<!-- Generator: Adobe Illustrator 19.0.0, SVG Export Plug-In . SVG Version: 6.00 Build 0)  -->
<svg version="1.1" id="Capa_1" xmlns="http://www.w3.org/2000/svg" xmlns:xlink="http://www.w3.org/1999/xlink" x="0px" y="0px"
	 viewBox="0 0 481.831 481.831" style="enable-background:new 0 0 481.831 481.831;" xml:space="preserve">
<linearGradient id="SVGID_1_" gradientUnits="userSpaceOnUse" x1="-30.4357" y1="559.8448" x2="-30.4357" y2="618.9438" gradientTransform="matrix(8 0 0 -8 450.9637 4945.4985)">
	<stop  offset="0" style="stop-color:#006DF0"/>
	<stop  offset="1" style="stop-color:#00E7F0"/>
</linearGradient>
<path style="fill:url(#SVGID_1_);" d="M288.177,103.764c-2.123,0.006-4.16-0.838-5.656-2.344
	c-40.293-39.953-101.992-48.818-151.904-21.824c-3.879,2.116-8.74,0.687-10.856-3.192c-2.116-3.879-0.687-8.74,3.192-10.856l0,0
	c56.151-30.351,125.55-20.377,170.88,24.56c3.124,3.125,3.123,8.19-0.002,11.314C292.331,102.921,290.297,103.763,288.177,103.764
	L288.177,103.764z"/>
<g>
	
		<linearGradient id="SVGID_2_" gradientUnits="userSpaceOnUse" x1="-43.8977" y1="559.8448" x2="-43.8977" y2="618.9438" gradientTransform="matrix(8 0 0 -8 450.9637 4945.4985)">
		<stop  offset="0" style="stop-color:#006DF0"/>
		<stop  offset="1" style="stop-color:#00E7F0"/>
	</linearGradient>
	<path style="fill:url(#SVGID_2_);" d="M95.841,103.764c-4.418,0.008-8.006-3.567-8.014-7.986c-0.004-2.13,0.842-4.174,2.35-5.678
		c2.709-2.704,5.496-5.28,8.36-7.728c3.358-2.872,8.408-2.478,11.28,0.88s2.478,8.408-0.88,11.28
		c-2.544,2.176-5.024,4.469-7.44,6.88C100.002,102.92,97.965,103.767,95.841,103.764z"/>
	
		<linearGradient id="SVGID_3_" gradientUnits="userSpaceOnUse" x1="-26.256" y1="559.8448" x2="-26.256" y2="618.9438" gradientTransform="matrix(8 0 0 -8 450.9637 4945.4985)">
		<stop  offset="0" style="stop-color:#006DF0"/>
		<stop  offset="1" style="stop-color:#00E7F0"/>
	</linearGradient>
	<path style="fill:url(#SVGID_3_);" d="M479.513,422.9L352.929,296.34c57.641-88.936,32.272-207.759-56.664-265.4
		S88.506-1.332,30.865,87.603C10.726,118.676,0.007,154.912,0.001,191.94c-0.262,105.848,85.333,191.868,191.181,192.13
		c37.379,0.092,73.97-10.748,105.267-31.186l126.528,126.552c3.124,3.123,8.188,3.123,11.312,0l45.2-45.2
		c3.123-3.124,3.123-8.188,0-11.312L479.513,422.9z M67.585,316.356C-1.153,247.629-1.161,136.192,67.566,67.454
		s180.164-68.745,248.902-0.018c60.405,60.396,68.722,155.446,19.725,225.416c-11.806,16.819-26.445,31.458-43.264,43.264
		C223.02,385.265,127.873,376.922,67.585,316.356z M428.657,462.468L309.753,343.564c1.288-1,2.504-2.088,3.768-3.12
		c1.08-0.888,2.16-1.768,3.2-2.68c3.792-3.248,7.504-6.584,11.008-10.088s6.84-7.2,10.088-11.008c0.912-1.064,1.792-2.144,2.68-3.2
		c1.032-1.264,2.12-2.48,3.12-3.768l118.928,118.88L428.657,462.468z"/>
</g>
<g>
</g>
<g>
</g>
<g>
</g>
<g>
</g>
<g>
</g>
<g>
</g>
<g>
</g>
<g>
</g>
<g>
</g>
<g>
</g>
<g>
</g>
<g>
</g>
<g>
</g>
<g>
</g>
<g>
</g>
</svg>
