<?xml version="1.0" encoding="iso-8859-1"?>
<!-- Generator: Adobe Illustrator 19.0.0, SVG Export Plug-In . SVG Version: 6.00 Build 0)  -->
<svg version="1.1" id="Capa_1" xmlns="http://www.w3.org/2000/svg" xmlns:xlink="http://www.w3.org/1999/xlink" x="0px" y="0px"
	 viewBox="0 0 480.007 480.007" style="enable-background:new 0 0 480.007 480.007;" xml:space="preserve">
<linearGradient id="SVGID_1_" gradientUnits="userSpaceOnUse" x1="-26.8729" y1="559.6083" x2="-26.8729" y2="618.8362" gradientTransform="matrix(8 0 0 -8 454.9768 4941.0293)">
	<stop  offset="0" style="stop-color:#006DF0"/>
	<stop  offset="1" style="stop-color:#00E7F0"/>
</linearGradient>
<path style="fill:url(#SVGID_1_);" d="M240.003,64.003c-15.771-0.003-31.472,2.112-46.68,6.288
	c-4.096,1.128-8.136,2.456-12.136,3.872c-25.57,9.033-48.702,23.863-67.584,43.328c-2.208,2.272-4.341,4.611-6.4,7.016
	c-63.799,73.334-56.07,184.503,17.264,248.302c44.489,38.704,105.404,52.557,162.256,36.898c4.096-1.128,8.136-2.456,12.136-3.872
	c25.555-9.036,48.673-23.863,67.544-43.32c2.208-2.272,4.341-4.611,6.4-7.016c63.787-73.345,56.038-184.512-17.307-248.299
	C323.467,79.345,282.45,64.004,240.003,64.003L240.003,64.003z M364.731,340.003c-12.704-6.792-26.087-12.23-39.928-16.224
	c6.887-24.685,10.578-50.152,10.984-75.776h63.856C397.998,281.584,385.778,313.785,364.731,340.003z M353.347,352.899
	c-3.552,3.56-7.2,6.976-11.064,10.168c-3.848,3.2-7.864,6.176-12,8.992c-0.352,0.232-0.68,0.48-1.024,0.72
	c-3.936,2.64-8,5.08-12.144,7.36c-0.568,0.312-1.12,0.632-1.688,0.936c-4.064,2.168-8.224,4.144-12.456,5.96
	c-0.688,0.288-1.368,0.584-2.056,0.864c-4.072,1.68-8.224,3.2-12.424,4.504c13.948-15.52,24.608-33.704,31.336-53.456
	c11.773,3.354,23.203,7.814,34.136,13.32c-0.184,0.216-0.408,0.424-0.616,0.64L353.347,352.899z M176.995,387.035
	c-4.224-1.808-8.371-3.792-12.44-5.952c-0.568-0.304-1.136-0.632-1.704-0.944c-4.136-2.28-8.2-4.712-12.128-7.352l-1.048-0.736
	c-4.096-2.808-8.096-5.776-11.936-8.968c-3.84-3.2-7.512-6.608-11.056-10.168l-0.656-0.632c10.934-5.506,22.364-9.968,34.136-13.328
	c6.726,19.755,17.386,37.942,31.336,53.464c-4.2-1.336-8.352-2.824-12.424-4.496L176.995,387.035z M115.275,140.003
	c12.704,6.792,26.087,12.23,39.928,16.224c-6.887,24.685-10.578,50.152-10.984,75.776H80.363
	C82.009,198.423,94.229,166.222,115.275,140.003z M126.659,127.107c3.552-3.56,7.2-6.976,11.064-10.168
	c3.848-3.2,7.864-6.176,12-8.992c0.352-0.232,0.68-0.48,1.024-0.72c3.936-2.64,8-5.08,12.144-7.36
	c0.568-0.312,1.12-0.632,1.688-0.936c4.064-2.168,8.224-4.144,12.456-5.96c0.688-0.288,1.368-0.584,2.056-0.864
	c4.072-1.68,8.224-3.2,12.424-4.504c-13.948,15.52-24.608,33.704-31.336,53.456c-11.773-3.354-23.203-7.814-34.136-13.32
	c0.184-0.216,0.408-0.424,0.616-0.64L126.659,127.107z M303.011,92.979c4.224,1.808,8.371,3.792,12.44,5.952
	c0.568,0.304,1.136,0.632,1.704,0.944c4.136,2.28,8.2,4.712,12.128,7.352l1.048,0.736c4.096,2.808,8.096,5.776,11.936,8.968
	c3.84,3.2,7.512,6.608,11.056,10.168l0.656,0.632c-10.934,5.506-22.364,9.968-34.136,13.328
	c-6.726-19.755-17.386-37.942-31.336-53.464c4.2,1.336,8.352,2.824,12.424,4.496L303.011,92.979z M232.003,151.763
	c-18.772-0.41-37.46-2.642-55.8-6.664c13.2-35.056,33.248-59.536,55.8-64.256V151.763z M171.091,160.339
	c20.003,4.513,40.41,7,60.912,7.424v64.24h-71.792C160.731,207.746,164.388,183.658,171.091,160.339L171.091,160.339z
	 M232.003,248.003v64.24c-20.502,0.424-40.909,2.911-60.912,7.424c-6.702-23.319-10.359-47.407-10.88-71.664H232.003z
	 M232.003,328.243v70.96c-22.552-4.72-42.6-29.2-55.8-64.256C194.542,330.912,213.23,328.666,232.003,328.243L232.003,328.243z
	 M248.003,328.243c18.772,0.41,37.46,2.642,55.8,6.664c-13.2,35.056-33.248,59.536-55.8,64.296V328.243z M308.915,319.667
	c-20.003-4.513-40.41-7-60.912-7.424v-64.24h71.792C319.275,272.261,315.618,296.349,308.915,319.667z M248.003,232.003v-64.24
	c20.502-0.424,40.909-2.911,60.912-7.424c6.702,23.319,10.359,47.407,10.88,71.664L248.003,232.003z M248.003,151.763v-70.92
	c22.552,4.72,42.6,29.2,55.8,64.256C285.463,149.121,266.775,151.353,248.003,151.763z M144.219,248.003
	c0.406,25.624,4.098,51.091,10.984,75.776c-13.841,3.994-27.224,9.432-39.928,16.224c-21.048-26.218-33.268-58.419-34.912-92
	H144.219z M335.787,232.003c-0.406-25.624-4.098-51.091-10.984-75.776c13.841-3.994,27.224-9.432,39.928-16.224
	c21.048,26.218,33.268,58.419,34.912,92H335.787z"/>
<g>
	
		<linearGradient id="SVGID_2_" gradientUnits="userSpaceOnUse" x1="-22.3716" y1="559.6083" x2="-22.3716" y2="618.8362" gradientTransform="matrix(8 0 0 -8 454.9768 4941.0293)">
		<stop  offset="0" style="stop-color:#006DF0"/>
		<stop  offset="1" style="stop-color:#00E7F0"/>
	</linearGradient>
	<path style="fill:url(#SVGID_2_);" d="M428.387,91.283c-2.783-3.432-7.821-3.957-11.253-1.174
		c-3.37,2.734-3.947,7.656-1.299,11.094c31.365,39.447,48.354,88.403,48.168,138.8c0.005,123.712-100.279,224.004-223.991,224.009
		c-50.274,0.002-99.087-16.908-138.585-48.009h26.576c4.418,0,8-3.582,8-8s-3.582-8-8-8h-48h-0.096
		c-0.693,0.047-1.376,0.187-2.032,0.416c-0.346,0.049-0.689,0.124-1.024,0.224c-0.2,0.08-0.352,0.264-0.544,0.36
		c-0.744,0.367-1.427,0.847-2.024,1.424l-0.072,0.048c-0.182,0.256-0.348,0.523-0.496,0.8c-0.452,0.536-0.829,1.13-1.12,1.768
		c-0.184,0.583-0.305,1.183-0.36,1.792c-0.107,0.383-0.184,0.773-0.232,1.168v48c0,4.418,3.582,8,8,8s8-3.582,8-8v-30.344
		c102.502,83.983,253.677,68.97,337.66-33.532c35.152-42.903,54.354-96.66,54.34-152.124
		C480.203,186.004,461.997,133.548,428.387,91.283L428.387,91.283z"/>
	
		<linearGradient id="SVGID_3_" gradientUnits="userSpaceOnUse" x1="-31.3718" y1="559.6083" x2="-31.3718" y2="618.8362" gradientTransform="matrix(8 0 0 -8 454.9768 4941.0293)">
		<stop  offset="0" style="stop-color:#006DF0"/>
		<stop  offset="1" style="stop-color:#00E7F0"/>
	</linearGradient>
	<path style="fill:url(#SVGID_3_);" d="M16.003,240.003C15.998,116.291,116.282,15.999,239.994,15.994
		c50.274-0.002,99.087,16.908,138.585,48.009h-26.576c-4.418,0-8,3.582-8,8s3.582,8,8,8h48h0.08c0.821-0.035,1.631-0.2,2.4-0.488
		c0.224-0.036,0.445-0.084,0.664-0.144c0.262-0.158,0.516-0.329,0.76-0.512c0.664-0.337,1.275-0.768,1.816-1.28l0.072-0.048
		c0.185-0.256,0.353-0.523,0.504-0.8c0.91-0.967,1.433-2.233,1.472-3.56c0.106-0.383,0.184-0.773,0.232-1.168v-48
		c0-4.418-3.582-8-8-8s-8,3.582-8,8v30.344c-102.502-83.983-253.677-68.97-337.66,33.532c-35.152,42.903-54.354,96.66-54.34,152.124
		c-0.205,54.208,18.145,106.855,52,149.192c2.73,3.474,7.759,4.077,11.233,1.347c3.474-2.73,4.077-7.759,1.347-11.233
		c-0.017-0.022-0.035-0.044-0.052-0.065C32.935,339.73,15.81,290.595,16.003,240.003L16.003,240.003z"/>
</g>
<g>
</g>
<g>
</g>
<g>
</g>
<g>
</g>
<g>
</g>
<g>
</g>
<g>
</g>
<g>
</g>
<g>
</g>
<g>
</g>
<g>
</g>
<g>
</g>
<g>
</g>
<g>
</g>
<g>
</g>
</svg>
