<?xml version="1.0" encoding="iso-8859-1"?>
<!-- Generator: Adobe Illustrator 19.0.0, SVG Export Plug-In . SVG Version: 6.00 Build 0)  -->
<svg version="1.1" id="Capa_1" xmlns="http://www.w3.org/2000/svg" xmlns:xlink="http://www.w3.org/1999/xlink" x="0px" y="0px"
	 viewBox="0 0 480.03 480.03" style="enable-background:new 0 0 480.03 480.03;" xml:space="preserve">
<linearGradient id="SVGID_1_" gradientUnits="userSpaceOnUse" x1="-26.8731" y1="562.9738" x2="-26.8731" y2="619.3648" gradientTransform="matrix(8 0 0 -8 455 4977.1333)">
	<stop  offset="0" style="stop-color:#006DF0"/>
	<stop  offset="1" style="stop-color:#00E7F0"/>
</linearGradient>
<path style="fill:url(#SVGID_1_);" d="M468.336,312.271c10.492-10.535,14.297-26.009,9.888-40.208
	c-4.122-11.575-13.128-20.751-24.624-25.088c9.594-10.515,12.892-25.329,8.664-38.92c-6.151-16.562-21.801-27.681-39.464-28.04
	H291.096l0.176-0.52c8.439-25.285,12.737-51.768,12.728-78.424V76.015c-0.035-30.913-25.087-55.965-56-56h-16
	c-13.255,0-24,10.745-24,24v48c-0.087,54.283-41.881,99.382-96,103.592v-31.592c0-4.418-3.582-8-8-8H8c-4.418,0-8,3.582-8,8v288
	c0,4.418,3.582,8,8,8h96c4.418,0,8-3.582,8-8v-27.04l11.544,5.8c27.85,13.932,58.556,21.203,89.696,21.24H392
	c22.091-0.017,39.987-17.939,39.97-40.03c-0.007-9.75-3.576-19.162-10.034-26.466c5.397-2.035,10.304-5.187,14.4-9.248
	c14.044-14.085,15.605-36.349,3.664-52.256C450.628,324.009,460.82,319.785,468.336,312.271L468.336,312.271z M96,444.015H16v-272
	h80V444.015z M408,308.015h-32c-4.418,0-8,3.582-8,8s3.582,8,8,8h32c13.255,0,24,10.745,24,24s-10.745,24-24,24h-48
	c-4.418,0-8,3.582-8,8s3.582,8,8,8h32c13.255,0,24,10.745,24,24s-10.745,24-24,24H213.24c-28.648-0.036-56.896-6.724-82.52-19.536
	l-18.72-9.4V211.751c62.991-4.291,111.919-56.599,112-119.736v-48c0-4.418,3.582-8,8-8h16c22.08,0.026,39.974,17.92,40,40v25.056
	c0.01,24.935-4.01,49.708-11.904,73.36l-3.688,11.056c-1.396,4.192,0.87,8.722,5.062,10.118c0.816,0.272,1.67,0.41,2.53,0.41h142.8
	c10.579,0.392,19.974,6.874,24.096,16.624c4.074,12.613-2.849,26.141-15.462,30.214c-2.401,0.776-4.91,1.168-7.434,1.162h-40
	c-4.418,0-8,3.582-8,8c0,4.418,3.582,8,8,8h54.8c10.579,0.392,19.974,6.874,24.096,16.624c4.074,12.613-2.849,26.141-15.462,30.215
	c-2.401,0.776-4.91,1.168-7.434,1.161H408z"/>
<linearGradient id="SVGID_2_" gradientUnits="userSpaceOnUse" x1="-49.875" y1="562.9738" x2="-49.875" y2="619.3648" gradientTransform="matrix(8 0 0 -8 455 4977.1333)">
	<stop  offset="0" style="stop-color:#006DF0"/>
	<stop  offset="1" style="stop-color:#00E7F0"/>
</linearGradient>
<path style="fill:url(#SVGID_2_);" d="M56,388.015c-13.255,0-24,10.745-24,24s10.745,24,24,24s24-10.745,24-24
	S69.255,388.015,56,388.015z M56,420.015c-4.418,0-8-3.582-8-8s3.582-8,8-8s8,3.582,8,8S60.418,420.015,56,420.015z"/>
<g>
</g>
<g>
</g>
<g>
</g>
<g>
</g>
<g>
</g>
<g>
</g>
<g>
</g>
<g>
</g>
<g>
</g>
<g>
</g>
<g>
</g>
<g>
</g>
<g>
</g>
<g>
</g>
<g>
</g>
</svg>
