<?xml version="1.0" encoding="iso-8859-1"?>
<!-- Generator: Adobe Illustrator 19.0.0, SVG Export Plug-In . SVG Version: 6.00 Build 0)  -->
<svg version="1.1" id="Capa_1" xmlns="http://www.w3.org/2000/svg" xmlns:xlink="http://www.w3.org/1999/xlink" x="0px" y="0px"
	 viewBox="0 0 480 480" style="enable-background:new 0 0 480 480;" xml:space="preserve">
<linearGradient id="SVGID_1_" gradientUnits="userSpaceOnUse" x1="-26.875" y1="558.605" x2="-26.875" y2="618.401" gradientTransform="matrix(8 0 0 -8 455 4941)">
	<stop  offset="0" style="stop-color:#006DF0"/>
	<stop  offset="1" style="stop-color:#00E7F0"/>
</linearGradient>
<path style="fill:url(#SVGID_1_);" d="M440,0H40C17.92,0.026,0.026,17.92,0,40v320c0.026,22.08,17.92,39.974,40,40h148.184l-25.6,64
	H112c-4.418,0-8,3.582-8,8s3.582,8,8,8h256c4.418,0,8-3.582,8-8s-3.582-8-8-8h-50.584l-25.6-64H440c22.08-0.026,39.974-17.92,40-40
	V40C479.974,17.92,462.08,0.026,440,0z M40,16h400c13.255,0,24,10.745,24,24v296H16V40C16,26.745,26.745,16,40,16z M300.184,464
	H179.816l25.6-64h69.168L300.184,464z M440,384H40c-13.255,0-24-10.745-24-24v-8h448v8C464,373.255,453.255,384,440,384z"/>
<g>
	
		<linearGradient id="SVGID_2_" gradientUnits="userSpaceOnUse" x1="-28.875" y1="558.605" x2="-28.875" y2="618.401" gradientTransform="matrix(8 0 0 -8 455 4941)">
		<stop  offset="0" style="stop-color:#006DF0"/>
		<stop  offset="1" style="stop-color:#00E7F0"/>
	</linearGradient>
	<path style="fill:url(#SVGID_2_);" d="M224,320c70.658-0.084,127.916-57.342,128-128c0-4.418-3.582-8-8-8H232V72
		c0-4.418-3.582-8-8-8c-70.692,0-128,57.308-128,128S153.308,320,224,320z M216,80.408V192c0,4.418,3.582,8,8,8h111.592
		C331.208,261.665,277.665,308.1,216,303.716c-61.665-4.384-108.1-57.927-103.716-119.592
		C116.234,128.562,160.437,84.358,216,80.408z"/>
	
		<linearGradient id="SVGID_3_" gradientUnits="userSpaceOnUse" x1="-17.375" y1="558.605" x2="-17.375" y2="618.401" gradientTransform="matrix(8 0 0 -8 455 4941)">
		<stop  offset="0" style="stop-color:#006DF0"/>
		<stop  offset="1" style="stop-color:#00E7F0"/>
	</linearGradient>
	<path style="fill:url(#SVGID_3_);" d="M256,168h120c4.418,0,8-3.582,8-8c-0.084-70.658-57.342-127.916-128-128
		c-4.418,0-8,3.582-8,8v120C248,164.418,251.582,168,256,168z M264,48.28c55.518,4.052,99.668,48.202,103.72,103.72H264V48.28z"/>
</g>
<g>
</g>
<g>
</g>
<g>
</g>
<g>
</g>
<g>
</g>
<g>
</g>
<g>
</g>
<g>
</g>
<g>
</g>
<g>
</g>
<g>
</g>
<g>
</g>
<g>
</g>
<g>
</g>
<g>
</g>
</svg>
