<?xml version="1.0" encoding="iso-8859-1"?>
<!-- Generator: Adobe Illustrator 19.0.0, SVG Export Plug-In . SVG Version: 6.00 Build 0)  -->
<svg version="1.1" id="Capa_1" xmlns="http://www.w3.org/2000/svg" xmlns:xlink="http://www.w3.org/1999/xlink" x="0px" y="0px"
	 viewBox="0 0 512 512" style="enable-background:new 0 0 512 512;" xml:space="preserve">
<path style="fill:#2E4F5A;" d="M398.838,305.702c-22.069,85.744-99.904,149.1-192.537,149.1C96.506,454.802,7.5,365.796,7.5,256.001
	S96.506,57.2,206.3,57.2c92.633,0,170.469,63.357,192.538,149.101V305.702z"/>
<path style="fill:#2A4752;" d="M206.3,57.2c-5.58,0-11.103,0.242-16.566,0.692c102.042,8.421,182.235,93.894,182.235,198.109
	s-80.192,189.688-182.234,198.108c5.463,0.451,10.986,0.693,16.566,0.693c92.633,0,170.468-63.356,192.537-149.1v-99.4
	C376.769,120.557,298.934,57.2,206.3,57.2z"/>
<path style="fill:#EEEEEF;" d="M338.259,268.425c-6.263,67.371-62.952,120.111-131.959,120.111
	c-73.196,0-132.533-59.337-132.533-132.533S133.104,123.469,206.3,123.469c69.006,0,125.694,52.738,131.959,120.107V268.425z"/>
<path style="fill:#D9D9D9;" d="M338.259,243.577C331.995,176.208,275.306,123.47,206.3,123.47c-4.132,0-8.217,0.199-12.252,0.569
	c63.333,5.833,113.762,56.221,119.649,119.538v24.849c-5.886,63.318-56.316,113.708-119.649,119.542
	c4.035,0.37,8.12,0.569,12.252,0.569c69.007,0,125.696-52.74,131.959-120.111L338.259,243.577z"/>
<path style="fill:#00A7CC;" d="M271.404,268.426c-5.816,30.659-32.752,53.841-65.103,53.841c-36.598,0-66.266-29.668-66.266-66.266
	s29.669-66.266,66.266-66.266c32.351,0,59.287,23.182,65.103,53.841"/>
<path style="fill:#0095C2;" d="M206.3,189.734c-4.35,0-8.599,0.432-12.715,1.232c30.513,5.932,53.551,32.787,53.551,65.034
	s-23.038,59.102-53.551,65.034c4.117,0.8,8.365,1.232,12.715,1.232c32.351,0,59.287-23.182,65.103-53.841v-24.851
	C265.588,212.917,238.651,189.734,206.3,189.734z"/>
<path style="fill:#2E4F5A;" d="M218.725,256.001c0-3.183-1.917-5.916-4.658-7.115v-17.734c0-4.289-3.477-7.766-7.766-7.766
	s-7.766,3.477-7.766,7.766v17.083h-17.084c-4.289,0-7.766,3.477-7.766,7.766s3.477,7.766,7.766,7.766h17.084v17.086
	c0,4.289,3.477,7.766,7.766,7.766s7.766-3.477,7.766-7.766v-17.736C216.808,261.917,218.725,259.184,218.725,256.001z"/>
<path style="fill:#00B8A4;" d="M371.968,268.426l14.928,33.585c0.997,2.243,3.222,3.689,5.677,3.689h85.801
	c4.496,0,7.503-4.627,5.677-8.735l-12.683-28.539v-24.849l12.683-28.539c1.826-4.108-1.181-8.735-5.677-8.735h-85.801
	c-2.455,0-4.68,1.446-5.677,3.689l-14.928,33.585V268.426z"/>
<path style="fill:#00AA96;" d="M471.367,243.577l12.683-28.539c1.826-4.108-1.181-8.735-5.677-8.735h-14.3l-16.565,37.274v24.849
	l16.565,37.274h14.3c4.496,0,7.503-4.627,5.677-8.736l-12.683-28.539V243.577z"/>
<g>
	<path style="fill:#2E4F5A;" d="M402.669,250.548c1.101,0.54,2.267,0.796,3.416,0.796c2.869,0,5.628-1.597,6.977-4.346
		l10.163-20.708c1.889-3.85,0.3-8.503-3.55-10.393c-3.849-1.889-8.503-0.3-10.393,3.55l-10.163,20.708
		C397.23,244.005,398.819,248.658,402.669,250.548z"/>
	<path style="fill:#2E4F5A;" d="M436.11,250.548c1.101,0.54,2.267,0.796,3.416,0.796c2.869,0,5.628-1.597,6.977-4.346l10.163-20.708
		c1.889-3.85,0.3-8.503-3.55-10.393c-3.85-1.889-8.502-0.3-10.393,3.55l-10.163,20.708
		C430.67,244.005,432.259,248.658,436.11,250.548z"/>
	<path style="fill:#2E4F5A;" d="M415.036,265.005c-1.89-3.851-6.543-5.44-10.393-3.55c-3.85,1.889-5.439,6.543-3.55,10.393
		l10.163,20.709c1.349,2.75,4.108,4.346,6.977,4.346c1.149,0,2.315-0.256,3.416-0.796c3.851-1.889,5.44-6.543,3.55-10.393
		L415.036,265.005z"/>
	<path style="fill:#2E4F5A;" d="M457.687,285.713l-10.163-20.709c-1.89-3.851-6.545-5.44-10.393-3.55
		c-3.85,1.889-5.439,6.542-3.55,10.393l10.163,20.709c1.349,2.75,4.108,4.346,6.977,4.346c1.149,0,2.315-0.256,3.416-0.796
		C457.987,294.217,459.576,289.564,457.687,285.713z"/>
</g>
<path style="fill:#CD7A54;" d="M492.075,268.426H206.301c-6.862,0-12.425-5.563-12.425-12.425c0-6.862,5.563-12.425,12.425-12.425
	h285.774"/>
<circle style="fill:#BA6F4C;" cx="492.07" cy="256" r="12.425"/>
<path style="fill:#121212;" d="M492.844,275.887c10.628-0.408,19.156-9.159,19.156-19.886c0-10.727-8.528-19.478-19.156-19.886
	c-0.253-0.026-0.509-0.039-0.768-0.039h-9.167l11.878-26.729c1.031-2.32,0.818-5.004-0.565-7.133s-3.75-3.413-6.289-3.413h-83.376
	C379.229,110.72,298.538,49.7,206.3,49.7C92.546,49.7,0,142.247,0,256.001s92.546,206.3,206.3,206.3
	c92.237,0,172.929-61.02,198.257-149.102h83.375c2.539,0,4.905-1.284,6.289-3.413c1.383-2.129,1.596-4.813,0.565-7.133
	l-11.878-26.728h9.167C492.335,275.926,492.591,275.913,492.844,275.887z M206.3,447.302c-105.483,0-191.3-85.817-191.3-191.301
	S100.817,64.7,206.3,64.7c84.077,0,157.807,54.669,182.598,134.102h-0.363c-2.964,0-5.65,1.746-6.853,4.454l-14.588,32.821h-22.172
	c-4.558-31.961-20.035-61.346-44.047-83.347c-25.872-23.705-59.459-36.76-94.574-36.76c-77.214,0-140.033,62.819-140.033,140.034
	c0,77.214,62.819,140.033,140.033,140.033c35.115,0,68.703-13.056,94.575-36.761c24.013-22.002,39.49-51.388,44.047-83.349h22.171
	l14.588,32.82c1.204,2.708,3.89,4.454,6.853,4.454h0.364C364.107,392.632,290.377,447.302,206.3,447.302z M472.792,260.926h-1.424
	h-99.4H206.301c-2.715,0-4.925-2.21-4.925-4.925c0-2.715,2.209-4.925,4.925-4.925h65.072c0.007,0,0.015,0.001,0.022,0.001
	s0.014-0.001,0.021-0.001h100.552h34.091c0.009,0,0.018,0.001,0.026,0.001c0.007,0,0.014-0.001,0.021-0.001h33.393
	c0.009,0,0.017,0.001,0.026,0.001c0.007,0,0.014-0.001,0.021-0.001h31.821h1.424c-0.404,1.578-0.641,3.222-0.641,4.925
	C472.15,257.704,472.388,259.348,472.792,260.926z M172.112,198.728c1.712,3.771,6.158,5.439,9.929,3.729
	c7.636-3.466,15.797-5.223,24.259-5.223c25.079,0,47.042,15.878,55.296,38.842h-47.795v-4.924c0-4.142-3.358-7.5-7.5-7.5
	s-7.5,3.358-7.5,7.5v6.401c-4.96,2.024-8.923,5.987-10.948,10.948h-6.402c-4.142,0-7.5,3.358-7.5,7.5c0,4.142,3.358,7.5,7.5,7.5
	h6.402c2.024,4.96,5.987,8.923,10.948,10.948v6.404c0,4.142,3.358,7.5,7.5,7.5s7.5-3.358,7.5-7.5v-4.926h47.795
	c-8.253,22.963-30.217,38.841-55.296,38.841c-32.404,0-58.766-26.362-58.766-58.766c0-13.893,4.936-27.372,13.899-37.956
	c2.677-3.161,2.285-7.893-0.876-10.57c-3.161-2.678-7.894-2.284-10.57,0.876c-11.255,13.289-17.453,30.211-17.453,47.65
	c0,40.675,33.091,73.766,73.766,73.766c33.295,0,62.228-22.297,71.038-53.841h52.418c-9.575,60.474-61.268,105.11-123.457,105.11
	c-68.943,0-125.033-56.09-125.033-125.033c0-68.944,56.09-125.034,125.033-125.034c62.187,0,113.88,44.635,123.456,105.107h-52.418
	c-8.81-31.544-37.743-53.842-71.038-53.842c-10.614,0-20.862,2.208-30.458,6.564C172.07,190.51,170.4,194.956,172.112,198.728z
	 M393.409,298.2l-9.9-22.274h19.882l8.104,16.513c1.303,2.656,3.967,4.197,6.738,4.197c1.109,0,2.236-0.247,3.299-0.769
	c3.719-1.825,5.253-6.319,3.429-10.037l-4.861-9.904h15.779l8.104,16.513c1.303,2.656,3.967,4.197,6.738,4.197
	c1.109,0,2.236-0.247,3.299-0.769c3.719-1.825,5.253-6.319,3.429-10.037l-4.861-9.904h13.906l9.898,22.274H393.409z
	 M466.494,236.076h-14.928l4.861-9.904c1.825-3.718,0.29-8.212-3.429-10.037c-3.718-1.825-8.212-0.29-10.037,3.429l-8.104,16.513
	h-16.731l4.861-9.904c1.825-3.718,0.29-8.212-3.429-10.037c-3.718-1.825-8.212-0.29-10.037,3.429l-8.104,16.513h-17.908l9.9-22.274
	h82.983L466.494,236.076z M487.15,256.001c0-2.715,2.21-4.925,4.925-4.925s4.925,2.21,4.925,4.925c0,2.715-2.21,4.925-4.925,4.925
	S487.15,258.717,487.15,256.001z"/>
<g>
</g>
<g>
</g>
<g>
</g>
<g>
</g>
<g>
</g>
<g>
</g>
<g>
</g>
<g>
</g>
<g>
</g>
<g>
</g>
<g>
</g>
<g>
</g>
<g>
</g>
<g>
</g>
<g>
</g>
</svg>
