<?xml version="1.0" encoding="iso-8859-1"?>
<!-- Generator: Adobe Illustrator 19.0.0, SVG Export Plug-In . SVG Version: 6.00 Build 0)  -->
<svg version="1.1" id="Capa_1" xmlns="http://www.w3.org/2000/svg" xmlns:xlink="http://www.w3.org/1999/xlink" x="0px" y="0px"
	 viewBox="0 0 480 480" style="enable-background:new 0 0 480 480;" xml:space="preserve">
<linearGradient id="SVGID_1_" gradientUnits="userSpaceOnUse" x1="-26.875" y1="557.335" x2="-26.875" y2="619.299" gradientTransform="matrix(8 0 0 -8 455 4941)">
	<stop  offset="0" style="stop-color:#006DF0"/>
	<stop  offset="1" style="stop-color:#00E7F0"/>
</linearGradient>
<path style="fill:url(#SVGID_1_);" d="M240,480C107.452,480,0,372.548,0,240S107.452,0,240,0s240,107.452,240,240
	C479.85,372.486,372.486,479.85,240,480z M240,16C116.288,16,16,116.288,16,240s100.288,224,224,224s224-100.288,224-224
	C463.859,116.347,363.653,16.141,240,16z"/>
<linearGradient id="SVGID_2_" gradientUnits="userSpaceOnUse" x1="-23.4137" y1="557.335" x2="-23.4137" y2="619.299" gradientTransform="matrix(8 0 0 -8 455 4941)">
	<stop  offset="0" style="stop-color:#006DF0"/>
	<stop  offset="1" style="stop-color:#00E7F0"/>
</linearGradient>
<path style="fill:url(#SVGID_2_);" d="M413.2,140c-2.209-3.826-7.102-5.137-10.928-2.928L269.8,213.6l-0.16-0.176
	c-0.72-0.8-1.408-1.6-2.184-2.328c-1.05-0.964-2.15-1.872-3.296-2.72c-0.968-0.744-1.928-1.472-2.968-2.12
	c-0.416-0.264-0.76-0.608-1.192-0.856c-0.736-0.424-1.536-0.664-2.296-1.04c-1.138-0.591-2.305-1.126-3.496-1.6
	c-1.31-0.484-2.646-0.898-4-1.24c-1.136-0.304-2.264-0.6-3.44-0.8c-1.512-0.243-3.038-0.398-4.568-0.464
	c-0.736-0.072-1.4-0.256-2.2-0.256c-0.392,0-0.752,0.104-1.136,0.112c-1.452,0.071-2.899,0.218-4.336,0.44
	c-1.256,0.176-2.512,0.328-3.736,0.624c-0.376,0.088-0.76,0.088-1.144,0.184c-0.904,0.248-1.712,0.672-2.584,0.976
	c-1.232,0.424-2.448,0.8-3.616,1.36c-1.298,0.613-2.561,1.297-3.784,2.048c-0.936,0.56-1.888,1.096-2.776,1.728
	c-1.231,0.902-2.409,1.874-3.528,2.912c-0.8,0.704-1.6,1.384-2.296,2.152c-0.312,0.336-0.696,0.592-1,0.936l-76.912-44.4
	c-3.812-2.234-8.713-0.956-10.947,2.856c-2.234,3.812-0.956,8.713,2.856,10.947c0.03,0.018,0.061,0.035,0.092,0.053l76.912,44.408
	c-0.272,0.8-0.36,1.6-0.576,2.448c-0.304,1.136-0.6,2.264-0.8,3.44c-0.243,1.502-0.398,3.016-0.464,4.536
	c0,0.752-0.224,1.472-0.224,2.24c0,0.4,0.104,0.8,0.12,1.16c0.066,1.425,0.208,2.846,0.424,4.256
	c0.184,1.288,0.344,2.568,0.64,3.816c0.088,0.368,0.08,0.752,0.184,1.12c0.232,0.88,0.656,1.672,0.952,2.528
	c0.398,1.255,0.86,2.488,1.384,3.696c0.601,1.272,1.274,2.509,2.016,3.704c0.576,0.968,1.12,1.944,1.768,2.856
	c0.89,1.209,1.846,2.368,2.864,3.472c0.72,0.8,1.424,1.6,2.2,2.344c1.039,0.954,2.128,1.852,3.264,2.688
	c0.984,0.76,1.96,1.496,3.016,2.16c0.408,0.256,0.744,0.592,1.168,0.8c1.328,0.748,2.695,1.424,4.096,2.024
	c0.152,0.064,0.288,0.152,0.44,0.216c2.192,0.903,4.459,1.61,6.776,2.112c0.456,0.096,0.904,0.184,1.36,0.264
	c2.391,0.495,4.823,0.763,7.264,0.8c2.417-0.026,4.827-0.272,7.2-0.736c0.592-0.104,1.168-0.216,1.744-0.344
	s0.992-0.168,1.488-0.296c0.904-0.248,1.712-0.672,2.584-0.976c1.232-0.424,2.448-0.8,3.616-1.36
	c1.298-0.613,2.561-1.297,3.784-2.048c0.936-0.56,1.888-1.096,2.776-1.728c1.231-0.902,2.409-1.874,3.528-2.912
	c0.8-0.704,1.6-1.384,2.296-2.152c0.972-1.053,1.885-2.159,2.736-3.312c0.736-0.968,1.464-1.928,2.112-2.96
	c0.264-0.416,0.608-0.76,0.856-1.192c0.424-0.736,0.664-1.536,1.04-2.296c0.591-1.138,1.126-2.305,1.6-3.496
	c0.485-1.31,0.899-2.645,1.24-4c0.304-1.136,0.6-2.264,0.8-3.44c0.243-1.502,0.398-3.016,0.464-4.536
	c0-0.752,0.224-1.472,0.224-2.24c0-0.4-0.104-0.8-0.12-1.16c-0.066-1.425-0.208-2.846-0.424-4.256
	c-0.184-1.288-0.344-2.568-0.64-3.816c-0.088-0.368-0.08-0.752-0.184-1.12c-0.208-0.8-0.584-1.472-0.84-2.232l132.48-76.488
	C414.109,148.703,415.408,143.818,413.2,140L413.2,140z M263.6,243.88c-0.128,0.8-0.32,1.6-0.528,2.344s-0.416,1.464-0.68,2.176
	c-0.305,0.793-0.655,1.567-1.048,2.32c-0.336,0.672-0.672,1.344-1.064,1.976s-0.856,1.232-1.312,1.832
	c-0.5,0.672-1.034,1.318-1.6,1.936c-0.448,0.472-0.936,0.896-1.424,1.336c-0.658,0.607-1.35,1.176-2.072,1.704
	c-0.544,0.392-1.128,0.72-1.704,1.064c-0.726,0.443-1.473,0.849-2.24,1.216c-0.706,0.303-1.427,0.57-2.16,0.8
	c-0.744,0.256-1.48,0.52-2.256,0.704c-0.756,0.164-1.519,0.29-2.288,0.376c-0.832,0.13-1.671,0.216-2.512,0.256
	c-0.712,0-1.416,0-2.128-0.072c-0.882-0.039-1.76-0.127-2.632-0.264c-0.72-0.12-1.424-0.312-2.136-0.496s-1.6-0.44-2.328-0.728
	s-1.448-0.624-2.152-0.976c-0.69-0.33-1.363-0.696-2.016-1.096c-1.329-0.892-2.598-1.871-3.8-2.928c-0.528-0.504-1-1.056-1.48-1.6
	c-0.547-0.599-1.063-1.227-1.544-1.88c-0.448-0.632-0.8-1.296-1.208-1.968c-0.388-0.635-0.743-1.289-1.064-1.96
	c-0.337-0.767-0.631-1.552-0.88-2.352c-0.224-0.664-0.456-1.32-0.624-2.008c-0.176-0.793-0.312-1.594-0.408-2.4
	c-0.104-0.76-0.2-1.52-0.232-2.304c-0.019-0.782,0.003-1.564,0.064-2.344c0.04-0.804,0.12-1.605,0.24-2.4
	c0.128-0.8,0.32-1.6,0.528-2.344s0.416-1.472,0.68-2.176c0.305-0.791,0.652-1.566,1.04-2.32c0.344-0.672,0.68-1.344,1.072-1.976
	s0.856-1.232,1.312-1.832c0.5-0.672,1.034-1.318,1.6-1.936c0.448-0.472,0.936-0.896,1.424-1.328
	c0.656-0.612,1.348-1.183,2.072-1.712c0.544-0.392,1.128-0.72,1.704-1.064c0.726-0.443,1.473-0.849,2.24-1.216
	c0.696-0.32,1.432-0.56,2.16-0.8s1.4-0.48,2.128-0.656c1.78-0.448,3.605-0.69,5.44-0.72h0.208c0,0,0.36,0.048,0.544,0.056
	c1.697,0.037,3.384,0.259,5.032,0.664c0.576,0.136,1.112,0.344,1.672,0.52c1.307,0.425,2.575,0.961,3.792,1.6
	c0.552,0.288,1.112,0.56,1.6,0.888c1.329,0.893,2.598,1.871,3.8,2.928c0.528,0.504,1,1.056,1.48,1.6
	c0.547,0.599,1.063,1.227,1.544,1.88c0.448,0.632,0.8,1.304,1.208,1.968s0.752,1.28,1.064,1.96c0.337,0.767,0.631,1.552,0.88,2.352
	c0.224,0.664,0.456,1.32,0.624,2.008c0.176,0.793,0.312,1.594,0.408,2.4c0.104,0.76,0.2,1.52,0.232,2.304
	c0.019,0.782-0.003,1.564-0.064,2.344c-0.028,0.784-0.095,1.566-0.2,2.344L263.6,243.88z"/>
<g>
</g>
<g>
</g>
<g>
</g>
<g>
</g>
<g>
</g>
<g>
</g>
<g>
</g>
<g>
</g>
<g>
</g>
<g>
</g>
<g>
</g>
<g>
</g>
<g>
</g>
<g>
</g>
<g>
</g>
</svg>
