<?xml version="1.0" ?><!DOCTYPE svg  PUBLIC '-//W3C//DTD SVG 1.1//EN'  'http://www.w3.org/Graphics/SVG/1.1/DTD/svg11.dtd'><svg height="100%" style="fill-rule:evenodd;clip-rule:evenodd;stroke-linejoin:round;stroke-miterlimit:1.41421;" version="1.1" viewBox="0 0 1062 1062" width="100%" xml:space="preserve" xmlns="http://www.w3.org/2000/svg" xmlns:xlink="http://www.w3.org/1999/xlink"><circle cx="531.308" cy="531.308" id="circle6" r="531.308" style="fill:rgb(42,183,211);"/><path d="M891.239,806.217C891.239,793.876 881.235,783.872 868.894,783.872L193.722,783.872C181.381,783.872 171.377,793.876 171.377,806.217L171.377,850.906C171.377,863.246 181.381,873.25 193.722,873.25L868.894,873.25C881.235,873.25 891.239,863.246 891.239,850.906L891.239,806.217Z" style="fill:rgb(255,87,34);"/><path d="M585.277,124.175L585.287,124.175L840.508,828.561L222.108,828.561L477.231,124.561C483.767,100.833 505.502,83.4052 531.308,83.4052C556.973,83.4052 578.612,100.644 585.277,124.175Z" style="fill:rgb(255,87,34);"/><path d="M380.612,391.109L419.384,284.12L643.238,284.12L682.004,391.109L380.612,391.109Z" style="fill:rgb(247,247,247);"/><path d="M305.785,597.192L344.557,490.202L718.065,490.202L756.831,597.192L305.785,597.192Z" style="fill:rgb(247,247,247);"/></svg>