<?xml version="1.0" ?><!DOCTYPE svg  PUBLIC '-//W3C//DTD SVG 1.1//EN'  'http://www.w3.org/Graphics/SVG/1.1/DTD/svg11.dtd'><svg enable-background="new 0 0 512 512" id="Layer_1" version="1.1" viewBox="0 0 512 512" xml:space="preserve" xmlns="http://www.w3.org/2000/svg" xmlns:xlink="http://www.w3.org/1999/xlink"><g><path d="   M110.6,206.2c1.3,0.1,2.6,0.4,3.8,1c1.8,1,4,0.7,5.5-0.8l49.1-49.1c2.2-2.2,2.2-5.8,0-8c-2.7-2.7-2.7-7.1,0-9.8l13.4-13.4   c2.7-2.7,7.1-2.7,9.8,0l4,4l32-32c7.7-7.7,7.7-20.1,0-27.7l-42.6-42.6c-7.7-7.7-20.1-7.7-27.7,0l-32,32l3.3,3.3   c3.5,3.5,3.5,9.3,0,12.8l-10.3,10.3c-3.5,3.5-9.3,3.5-12.8,0c-1.8-1.8-4.7-1.8-6.5,0l-49.8,49.8c-1.8,1.8-1.8,4.8,0,6.6   c1.8,1.8,2.1,4.7,0.6,6.9C-13.9,244.5,31.7,291,31.7,291c5.7-41.6,40.8-80.2,75.2-84.8C108,206.1,109.4,206.1,110.6,206.2z" fill="none" stroke="#000000" stroke-linecap="round" stroke-linejoin="round" stroke-miterlimit="10" stroke-width="10"/><path d="   M444.1,412.7L186.2,174.3l-46.8,46.8l238.3,257.9c13.1,14,35.2,14.4,48.8,0.8l18.4-18.4C458.5,447.9,458.1,425.8,444.1,412.7z" fill="none" stroke="#000000" stroke-linecap="round" stroke-linejoin="round" stroke-miterlimit="10" stroke-width="10"/><path d="   M100.6,427.5c-14.3,14.3-14.3,37.4,0,51.7l0,0c14.3,14.3,37.4,14.3,51.7,0l102.6-102.6l-49.7-53.7L100.6,427.5z" fill="none" stroke="#000000" stroke-linecap="round" stroke-linejoin="round" stroke-miterlimit="10" stroke-width="10"/><path d="   M493.4,151.4l-55.9,55.9c-4.3,4.3-10.8,5.7-16.5,3.6l-31.3-11.7c-4.2-1.6-7.6-4.9-9.1-9.1l-11.7-31.3c-2.1-5.7-0.7-12.2,3.6-16.5   l55.9-55.9c-29.4-7.2-61.7,0.7-84.5,23.8c-25.1,25.4-31.7,62.4-19.9,93.9l-36.1,36.1l53.7,49.7l34-34c31.7,12,68.9,5.2,94.4-20.3   C492.8,212.7,500.6,180.6,493.4,151.4z" fill="none" stroke="#000000" stroke-linecap="round" stroke-linejoin="round" stroke-miterlimit="10" stroke-width="10"/></g></svg>