<svg xmlns="http://www.w3.org/2000/svg" shape-rendering="geometricPrecision" text-rendering="geometricPrecision" image-rendering="optimizeQuality" fill-rule="evenodd" clip-rule="evenodd" viewBox="0 0 496 512.141"><path d="M247.999 0C388.016 0 496 118.389 496 256.07c0 137.697-107.967 256.071-248.001 256.071C107.959 512.141 0 393.771 0 256.07 0 118.358 107.931 0 247.999 0zm53.657 320.057c3.026 6.081 6.868 12.252 11.256 17.431 12.426 14.676 27.506 16.005 45.803 19.544 26.323 5.084 52.237 24.621 64.281 49.814 33.169-41.395 52.802-94.357 52.802-150.776 0-126.587-98.824-235.868-227.799-235.868-129.717 0-227.797 109.983-227.797 235.868 0 56.236 19.502 109.036 52.47 150.37 12.416-27.181 40.412-43.359 68.629-47.133 19.962-2.667 34.23-3.194 44.269-22.046 2.985-5.605 5.258-11.953 7.079-17.878-8.333-8.062-14.741-17.106-16.768-32.853a18.024 18.024 0 01-7.063-2.26c-9.095-5.167-12.523-17.5-13.025-27.288-.523-10.266.063-23.17 8.912-27.045-1.666-23.68 3.353-63.516-21.865-71.141 48.375-59.779 104.134-92.293 146.003-39.115 48.507 2.548 67.054 77.507 32.569 113.283l-.012.118c8.053-.725 15.385 2.774 17.975 10.813 3.137 9.737-3.411 22.969-6.592 31.984-1.213 3.432-2.356 5.883-5.089 8.055-2.447 1.968-5.221 2.846-9.124 2.859-1.124 15.201-7.752 24.138-16.914 33.264zm-6.161 5.912c6.621 12.561 16.337 25.025 27.188 29.516-42.642 31.287-101.513 29.479-145.371 2.741 11.248-6.058 17.742-19.988 21.997-32.815 2.353 2.033 4.705 4.06 7.03 6.125 14.031 12.482 27.871 18.998 41.943 19.132 14.184.135 27.925-6.194 41.613-19.401l5.6-5.298zm-131.174-82.316c2.726-7.803 8.431-7.112 16.488-4.386 3.109 1.62 2.626.922 5.482 1.962-4.203-19.055 5.199-39.899 21.951-49.708 12.191-5.968 27.513-5.575 43.095-9.595 11.129-2.869 22.394-7.99 32.751-19.284 12.85 6.327 22.896 16.524 27.893 34.098 2.832 12.042 3.061 27.858-.569 49.037 9.968-7.552 24.343-6.85 19.821 9.882l-6.177 17.494c-1.476 4.186-2.464 5.701-7.756 5.421-2.334-.124-4.687-1.025-7.031-2.575 2.164 25.812-10.369 34.237-26.049 49.37-24.152 23.306-47.364 22.344-72.432.044-14.682-13.06-27.728-20.996-28.378-47.849-3.809 1.166-7.411 1.378-10.553-.41-6.264-3.562-8.549-13.942-8.889-20.588-.137-2.669-.023-10.191.353-12.913z"/></svg>